<?xml version="1.0" encoding="utf-8"?>
<!-- Generator: Adobe Illustrator 25.4.1, SVG Export Plug-In . SVG Version: 6.00 Build 0)  -->
<svg version="1.1" id="Layer_1" xmlns="http://www.w3.org/2000/svg" xmlns:xlink="http://www.w3.org/1999/xlink" x="0px" y="0px"
	 viewBox="0 0 3780.1 958.5" style="enable-background:new 0 0 3780.1 958.5;" xml:space="preserve">
<style type="text/css">
	.st0{fill:#FFFFFF;}
</style>
<g id="Image">
	<path class="st0" d="M998.4,640.2c17.9,0.7,35.7,1.5,53.6,2c9.8,0.3,16.9,4.2,21.6,12.9c1.1,1.6,2.9,2.6,4.9,2.7
		c21.3-0.6,42.7-1.3,64-2.3c11.3-0.6,16.2,2.6,19.3,14.5c1.7,0.1,3.4,0.1,5.1,0c9.4-0.9,16.1,3.3,20.8,11c1.5,2.5,3.1,3.4,6,3.3
		c6-0.2,12,0.1,17.9-0.1c7.7-0.3,14,2.7,16.9,9.5c4.5,10.6,9,21.4,11.2,32.6c6.4,32.6,7.7,65.4,0.9,98.2c-2,9.5-5,18.6-14.4,24.2
		l3.8,2.2c-0.7,0.4-1.5,0.6-2.2,0.8c-32.9,1.3-65.8,3.1-98.8,3.8c-56,1.2-111.9,1.7-167.9,2.4c-27,0.3-54,0.6-81,0.7
		c-80.8,0.3-161.7,0.6-242.5,0.7c-32.6,0.1-65.2,0-97.9-0.2c-43.3-0.2-86.6-0.5-129.9-0.9c-38.2-0.3-76.5-0.8-114.7-1.4
		c-34.6-0.6-69.2-1.3-103.8-2.3c-17.9-0.5-35.8-1.8-53.7-2.8c-1-0.1-2.1-0.3-3.1-0.4l-0.1-1.7c10.2-0.6,20.3-1.3,30.5-1.8
		c10.5-0.5,21-0.8,31.5-1.2c10.3-0.3,20.6-0.7,31-0.8c10.5-0.1,21,0,31.5,0l1.1-2.1c-0.7-0.1-1.4-0.2-2.1-0.4
		c-38.1-10.5-63-36.2-80.1-70.5c-1.9-3.7-3.6-7.5-4.9-11.5c-1.1-3.4-3-4.1-6.3-4.2c-15.7-0.8-31.6-0.9-47.1-3.2
		c-25.9-3.8-44-23.9-44.5-49.8c-0.5-24.8,0.7-49.6,1.6-74.3c0.1-2.5,2.6-5.3,4.5-7.4c1.6-1.7,3.7-3,6-3.5c9-1.9,11.3-7.9,12.9-16.2
		c5.7-29.1,20.3-53.5,41.8-73.9c2.1-2.1,3.5-4.8,4-7.7c5.1-43.7,12.4-87.1,22-130c6.5-28.7,24.2-47.1,52-55.8
		c29-9,58.3-17.4,88.5-21.3c26.2-3.4,52.5-6.3,78.8-8.4c29.9-2.4,59.9-3.5,90.6-5.3c1-4.2,2.3-8.9,3-13.6c0.2-1.3-1.2-3.2-2.4-4.3
		c-4.1-3.8-8.6-7.2-12.8-11c-7.4-6.5-6.2-13.4,2.8-17c23.9-9.4,47.8-18.8,71.8-27.8c4.2-1.6,5.1-3.7,5.2-7.8
		c0.3-11.9-0.2-24.1,2.4-35.6c2-9.3,7.7-17.8,12.3-26.4c2.3-4.4,9.2-5.6,15.9-3.7c10.6,3,15.3,13.6,9.6,22.9
		c-6.7,11-10.7,22.4-7.9,35.7c3.6-0.7,6.1-1.8,7-6.4c2.1-11.3,8.7-14.9,19.8-11.7c4.7,1.3,9.2,3,14,4.5c0.8-3.1,1.4-6.1,2.4-8.9
		c2.9-8,9.2-12,17.1-9.1c7.5,2.8,14.2,7.5,21.2,11.5c1.5,0.9,2.6,2.3,4.6,4.2c0.9-3.7,1.4-6.4,2.2-9.1c3.2-11.2,11.2-15.9,22-11.5
		c7.4,3,13.8,8.2,20.8,12.3c2,1.1,4.4,2.4,6.5,2.2c24.2-2.2,48.3-4.7,72.5-7c13-1.2,26.2,0.2,38.6,4.1c3.4,0.9,7,0.8,10.4-0.1
		c15.9-4.2,32.2-5,47.8-1.1c8.1,2,15.4,1.4,23.2,1.7c0-12.9,0.4-25.4-0.1-37.8c-0.6-15.7,2.1-30.6,9.4-44.6
		c3.1-5.9,7.2-11.5,9.3-17.7c4.5-12.8,22.2-13.2,30.9-6.3c8.9,7,10.5,16.2,5.5,26.3c-4.9,9.8-10.7,19.6-13.1,30.1
		c-2.3,9.6-0.6,20.2-0.7,30.3c0,5.8,0,11.6,0,17.4c7.3,1,14,1.4,20.4,2.9c27.2,6.7,51,20.4,73,37.1c12.2,9.3,22.9,20.5,34.5,30.6
		c12.3,10.7,18.4,24.4,19.9,40.3c2,21.1,4.4,42.1,5.6,63.2c3,49.3,5.5,98.7,8,148c1.3,27.3,2.2,54.6,3.1,81.9
		c0.4,10.5-0.3,21.1,1.1,31.5c2,15.2-15.6,28.8-30.6,24.4c-3.5-1-7-1.7-10.5-2.9c-9.6-3.1-19.8-4.4-29.9-3.7
		c-15.1,0.8-30.3,0.2-45.5,0.2L998.4,640.2z M645.7,643.8c1.7,12.9,3.5,25.8,5.2,38.4c2.8-11.1,5.7-22.7,8.7-34.9l-14-3.3
		c-2.2-0.7-4.5-1.4-6.8-2c-45.3-10.9-91.4-16.9-137.9-19.7c27-0.1,54-0.5,80.8,1.4s53.8,5.9,81.3,9l4.3-16.2
		c-21.1-2.4-41.7-5-62.4-7.2c-46.9-4.9-94-5.1-141.1-3.7s-94.1,2.3-141.2,3.8c-27.3,0.9-54.6,2-81.9,3.8c-32,2-64,4.1-95.8,7.3
		c-16.6,1.7-33,5.8-49.5,9.2c-1.6,0.3-4,2.3-4.1,3.8c-0.5,5.2-0.2,10.4-0.2,16.2c2.3-0.4,4-0.6,5.8-1c31.6-6.6,63.4-11.5,95.6-13.5
		c33.6-2,67.3-3.8,100.9-4.5c48-1,96-1.2,144-1c30.6,0.1,61.2,0.8,91.8,2.4c26.2,1.4,52.3,4.6,78.4,7.2
		C620.3,640.5,633,642.2,645.7,643.8L645.7,643.8z M798.2,708c-0.4-26.9-7.8-50.4-25.8-69.9c-27-29.2-69-28.2-94.8,2.1
		c-31,36.4-31.9,94.2-2.1,131.7c25.1,31.6,65.6,34.7,94.5,6.6C790.2,759.1,797.7,734.4,798.2,708z M670,440.4
		c-28.3-11.3-102.2-1.3-145.4,19.9c-55.6,27.2-95.3,70.5-125.4,124.8H443c-7.6-8.5-10.2-15.5-6.6-22.9c3-6.4,7-12.8,12-17.7
		c10.1-9.8,23.1-14.9,36.6-18c36.6-8.5,73.6-8.6,110.7-4.9c6.4,0.6,10-1,13.9-6c40.5-52.5,109.4-65.4,166.3-31.5
		c1.4,0.9,2.9,1.5,4.4,2.3c-18.8-15.2-40.6-26.3-63.9-32.6c-27.2-7.4-54.7-7.8-82.4-3.3c-32.4,5.3-64.2,13-94.1,27
		c-7.1,3.3-14.2,6.7-21.2,10c12.8-11.3,27.1-20.7,42.7-27.8C595.6,443.7,631.7,438.2,670,440.4z M194.8,379.5
		c14.1-10.8,14.9-11.4,27.5-13.7c23.7-4.3,47.3-9.1,71.1-12.4c30.3-4.2,60.8-7.1,91.1-10.5c6.6-0.7,11.9,1.7,13.4,6.7
		c0.9,3.5,1.1,7.1,0.5,10.7c-4.5,33.7-9,67.4-14.1,101.1c-4.5,29.7-9.7,59.3-14.9,88.9c-2,11.4-10.3,18.4-21.8,19.2
		c-9.4,0.7-18.8,1.2-28.2,1.8c-26.4,1.7-52.8,3.4-79.1,5c-20.6,1.3-41.2,2.6-61.8,3.7c-9.7,0.5-15.1-5.1-15.1-14.9v-13.5l-0.9-0.1
		c-1.2,13.5-2.3,27-3.5,41c2,0,3.3,0.1,4.5,0c16.3-0.9,32.5-1.9,48.8-2.8c50.6-2.6,101.3-5.2,151.9-7.8c15.3-0.8,22.7-6.7,26.7-21.4
		c14.2-51.7,24.6-104.3,31-157.5c2.2-18.5,3.5-37.1,5.4-55.7c0.9-8.7-5.4-17.9-15.5-17.9c-27.2,0-54.3,1.5-81.3,4.7
		c-34.9,4-69.5,9.8-103.3,19.8C213.7,357.8,203.1,366,194.8,379.5z M619,841.9c-22.4-14.9-36.8-34.5-48.6-56.4
		c-0.8-1.6-4.1-2.6-6.3-2.6c-16.8,0.2-33.7,0.8-50.5,1.2c-30.1,0.6-60.1,1.2-90.2,1.5c-4.4,0-6.8,1.8-9.2,5.2
		c-12.9,18.3-28.9,33.4-48.9,43.8c-6.3,3.3-13,5.8-20.4,9.1L619,841.9z M970.5,554.1c0-2,0-3.8,0-5.6c-0.6-21.2-1.3-42.3-1.8-63.5
		c-1.1-43.2-2.1-86.5-3.1-129.8c-0.5-20.8-0.9-41.6-1.6-62.4c-0.1-2-1.9-5.1-3.5-5.7c-13.5-4.2-27.3-3.8-41.5-2.6
		c0,7.9-0.4,15.3,0.1,22.7c0.4,5.5-1.9,9.6-7.3,10.4c-1.5,0.2-3.1,0.3-4.4,0.5c4,5.4,7.8,10.4,11.4,15.6c0.9,1.3,1.5,3.8,0.9,5
		c-3.5,6.8-5.6,14.5-13,18.8c-1.4,0.8-2.5,3.4-2.5,5.1c0,11.4,0.3,22.8,0.5,34.2c1,44.5,2.1,89,3.2,133.5c0.2,8,0,16.1,0,24.3
		C929.5,548.7,949.6,549,970.5,554.1z M872.3,628.9c-2.2,0-4,0.2-5.8,0c-4.6-0.5-6.1,1.3-5.5,6c0.6,4.1,0.4,8.3,0.5,12.5
		c0.8,22.4,3.6,44.8-0.2,67.2c-1.4,8.1-1.6,16.4-2.4,25.5h37.6c0.1,1.5,0.4,3,0.8,4.4c2.1,5.3,0.9,8.8-4.9,10.7c-3,1-5.7,2.9-9.7,5
		c16.3-4,18.1-6.4,16-19c-0.6-3.3-2-4.3-5.3-4.4c-9.4-0.3-18.7-1.1-28.6-1.7c2.4-14,4.7-27.7,7-41.5l63.6,10.4c0,6.4-0.1,12.2,0,18
		c0.1,5.5-0.5,11,1.6,16.3c4.6-25.3-1.9-50.4-1.3-76c17.7,18.2,19.9,45.6,6.2,76.7c6.9,0.9,13.7,1.8,20.5,2.6
		c5.9,0.7,13-0.2,12.4,9.8c15.8-18,21.7-62-3.1-90.3c4.7,1.7,11.1,3,13.2,6.6c15.7,27.9,15.5,56.3-0.5,84.2
		c-3.8,6.7-8.2,13.9-17.5,14.4c-0.3,0-0.5,0.8-0.9,1.6c1.4,0.2,2.6,0.5,3.8,0.6c23.8,2,47.6,3.8,71.4,5.9
		c12.7,1.1,21.8-4.3,28.3-14.5c11.2-17.8,12.2-36.8,5.4-56.3c-4-11.5-10.9-21.1-23.4-24.5c-22.9-6.1-45.9-11.8-68.8-17.6
		c-15.9-4.1-31.8-8.2-48.1-12.4c0.4-2.8,0.7-5,1.1-7.8l-2.6-0.5v56.4l-60.7-10.5L872.3,628.9z M593.7,318.6c0.9,0.4,1.9,0.7,2.8,0.9
		c17,2.3,34,4.6,51.1,6.8c9.3,1.2,18.6,2.6,28,2.8c9,0.2,18-1.1,27.1-1.8c16.1-1.1,32.1-2.1,48.2-3.5c2.1-0.2,5.4-1.7,5.8-3.2
		c4.7-19.5,9-39,13.5-59.3c-2.8,0.1-4.6,0.2-6.3,0.3c-31.6,2.4-63.1,4.9-94.7,7.3c-19.8,1.5-39.7,3-59.5,4.7
		c-1.9,0.2-4.8,1.8-5.2,3.3C600.6,290.6,597.2,304.4,593.7,318.6z M443.8,357.4c78.3-0.1,156.5,6.7,233.6,20.3
		c-41.2-12.1-83.1-20.6-125.4-27.7c21.6-0.3,43.1-0.7,64.6-0.2c21.3,0.5,42.7,1.6,64,3.1c21.2,1.5,42.4,3.9,63.6,5.9
		c-101.2-24.1-203.8-36.4-308.9-37.4C444.3,332.8,446.2,344.4,443.8,357.4z M1137.5,674.2v53.5l-1.8,0.1c-1.2-9.9-2.3-19.9-3.4-29.4
		h-30.3v29c-1.1-0.8-1.7-2.1-1.8-3.4c-0.8-7.2-1.4-14.4-2.4-21.6c-0.2-1.4-2-3.6-3.1-3.7c-4.6-0.1-9.1,0.5-14.1,0.8
		c6.5,17.6,6.1,34.7,1,51.6c0.7,0.4,1,0.7,1.4,0.7c19.4,0.1,38.8,0.3,58.1,0.2c4.6,0,6.9-3.1,7-8c0.5-23,1.2-45.9,1.9-68.9
		c0.1-4.3-2.3-7.1-6.4-7c-26.9,1-53.8,2-80.8,3.1c-1.5,0.1-3,1-4.4,1.5v1.5c4.7,0.5,6.5,7.5,12.7,5.2c0.6,9,5.1,13.2,14,13.1
		c3.1,0,6.2-0.4,9.2-0.2s4.2-1,4.8-3.8c1-4.6,2.4-9.1,3.6-13.6l1.1,0.2c-0.4,5.3-0.8,10.7-1.2,15.8c9.8,0,19.2,0.1,28.5-0.1
		c1,0,2.3-1.9,2.7-3.1C1135.1,683.4,1136.2,678.9,1137.5,674.2z M143.5,738.8l-0.1,2.4c15.1,0,30.3-0.1,45.4,0
		c36.8,0.4,73.5,1,110.3,1.5c20.5,0.3,40.9,0.6,61.4,0.8c62.3,0.8,124.7,1.5,187,2.3c22.3,0.3,44.6-0.4,66.8,1
		c18.1,1.1,32.2-11.6,33.4-33.9c-3.7,2.7-7.2,5.2-10.7,7.8c-8.8,6.8-19.6,10.5-30.7,10.8c-46.9,0.9-93.8,1.8-140.7,2.7
		c-38.4,0.7-76.8,1.3-115.1,2c-57.8,0.9-115.6,1.8-173.3,2.7C165.9,738.9,154.7,738.8,143.5,738.8L143.5,738.8z M912.1,255.8
		c0-15.4,0.1-30.8,0-46.2c0-6.8-3.2-10.1-9.9-10.2s-13.4-0.2-20.1,0s-10,3.6-10,10.2c-0.1,30.8-0.1,61.6,0,92.3
		c0,6.8,3.5,10.1,10.5,10.2c5.8,0,11.6,0,17.4,0c9.4,0,12.2-2.8,12.2-12.3C912.2,285.1,912.2,270.4,912.1,255.8L912.1,255.8z
		 M548,526.6c-7.5,0.5-20.9,1-34.2,2.5c-17.8,2-35.4,5.1-51.3,14.4c-8.6,5-15.3,11.5-19,20.8c-2.3,5.8,0.5,12.4,6.3,14.7
		c0.8,0.3,1.7,0.6,2.6,0.7c2.3,0.3,4.7,0.4,7,0.3c33.7,0,67.4-0.3,101.1,0.2c14.8,0.3,29.6,1.4,44.2,3.5
		c20.8,2.9,37.5-2.8,49.6-20.4c8.3-12.1,3.8-23.8-10.6-26.9C614.2,530,584.2,527.2,548,526.6z M983,598.3
		c-2.3-101.4-4.6-202.3-7-304.3l105.1,76.3l1-1.1c-1-0.4-1.9-1-2.7-1.6c-32.2-26.5-64.2-53.1-96.5-79.3c-5.6-4.5-7.4-9.2-7.5-16
		c0-18.5-0.6-37-1.2-55.4c-0.3-9.1,3.5-12.4,12.3-9.8c3.7,1.1,7.4,2.5,11.1,3.8c-6.5-6-14.6-10-23.2-11.8
		c-10.5-2.3-15.3,1.4-15.2,12.1c0.2,21.4,0.6,42.8,1.1,64.1c0,1.5,1.4,3.8,2.7,4.2c6.8,2.5,9.1,7.3,9.1,14.3c0,14.8,0.7,29.7,1,44.5
		c1.1,42.7,2.1,85.4,3.2,128.2c0.7,28.2,1.2,56.5,1.8,84.7c0.2,10.6-0.7,11.8-11.1,12.7c-0.3,0-0.6,0.4-0.4,0.2v34.1H983z
		 M804.5,227.8c-7.1,2.9-10,8-10.8,14.8c-2.5,23.6-5.1,47.2-7.5,70.7c-0.6,5.9-1,11.8-1.5,17.7l1.5,0.2c0.3-1.5,0.7-2.9,0.9-4.4
		c1.7-14.2,3.4-28.4,5-42.6c1.6-14,2.9-28.1,4.6-42.1c1.2-10.3,8.8-14.8,17.8-9.9c13.3,7.3,26.2,15.4,39.3,23.1
		c3.6,2.1,7.3,4.2,10.9,6.3l1.1-1.4c-1.3-1.4-2.7-2.7-4.3-3.8c-9.9-6.1-19.4-12.8-29.8-17.7c-12-5.7-18.9-14.1-21.9-27.2
		c-2.5-11.1-9.1-15.1-20.5-14.3c-25.7,1.7-51.3,3.6-76.9,5.5c-28.7,2.1-57.4,4-86.1,6.5c-8.7,0.8-17.7,2.2-25.8,5.3
		c-27.2,10.5-53.9,22-80.9,33.1c-7.3,3-14.6,6-21.9,8.9c1.2,0.4,2.6,0.3,3.8-0.2c20.6-7.4,41.1-14.8,61.8-22
		c10.4-3.6,20.7-8.8,31.4-9.9c48-5.2,96.3-8.4,144.3-13.9C763.7,207.8,783.6,217.3,804.5,227.8z M583.7,591.4l-0.1,1.1
		c13.6,2,27.1,4,40.7,6c13.6,2,27.2,3.9,40.8,6.3c4.8,0.9,6.7-0.4,8.6-4.9c10.3-25.3,23.5-49,44-67.8c25.5-23.3,57.5-23.4,83.2-0.2
		c17.8,16,27,36.9,33.1,59.3c10.2,37.5,11.8,76.1,12.8,114.6c0.5,17.7-1.2,35.4-2.2,53.1c-0.2,3.7,0.6,5.1,4.8,3.6
		c0.4-10.3,1.3-20.6,1.2-30.8c-0.2-21.5-0.6-43.1-1.7-64.5c-1.2-27.5-5.5-54.8-12.8-81.3c-6.1-21.8-14.2-42.7-29.8-59.6
		c-15.2-16.5-33.7-25.2-56.9-21.3c-15.6,2.6-27.7,11.1-38.7,21.7c-18.5,17.8-32.4,38.8-44.2,61.4c-1.4,2.7-3,3.9-6.2,3.9
		c-18.5-0.3-36.9-0.3-55.4-0.4C597.7,591.4,590.7,591.4,583.7,591.4z M818.9,805.4c1.8-3,4.7-7.2,6.9-11.7
		c28.4-59,26.9-117.5-4.5-174.8c-12.6-23.1-31-40.9-55.5-51.5c-1.7-0.7-4.1-1.7-5.5-1.1c-8.2,3.2-15.2,8.9-19.9,16.3
		c1,0.4,2,0.7,3,1c30.4,4.4,53.3,20.4,68.2,46.7c22.6,40,28.5,83.2,20.5,128.1C829.1,774.9,823.1,790.7,818.9,805.4L818.9,805.4z
		 M938.3,276.2l2.1-0.1c0.2-1.3,0.3-2.6,0.3-3.9c-0.2-20.3-0.4-40.6-0.6-60.9c-0.1-13.6,0.4-27.2-0.5-40.8
		c-1.7-23.5-1.1-46.4,13.5-66.5c0.5-0.8,0.9-1.6,1.3-2.4c3-5.7,1.2-11-4.9-14.1s-10.8-1.6-13.9,4.3c-3.1,5.7-6.2,11.4-9.3,17.2
		c-6.1,11.4-9,24.2-8.6,37.1c0.2,8.5,0.5,17,0.6,25.5c0.4,32.6,0.7,65.2,1,97.8c0,2.3,0.4,4.6,0.7,7.1l10.3-0.6c0-7.3,0-14.1,0-21
		c0.2-36.6,0.4-73.2,0.7-109.8c0.1-8.6,1.2-17.1,5.4-24.9c-1.1,7.6-3.2,15.1-3,22.5c1,38.4,2.5,76.7,3.9,115
		C937.5,263.9,938,270,938.3,276.2z M983.5,843.9h92.7c-3.2-5.8-7.1-11.8-9.8-18.2c-2.8-6.6-4.6-13.7-6.4-20.7
		c-0.7-2.8-1.7-3.8-4.7-3.7c-8,0.4-15.9,0.4-23.9,0.7c-9.9,0.3-19.8,0.7-29.7,1.1C998.9,818,994.7,831.7,983.5,843.9L983.5,843.9z
		 M596.4,276.4c-1.9,0.4-3,0.5-4,0.8c-27,6.6-54,13.5-81.1,19.5c-7.8,1.7-11.9,4.9-11.9,13l86.5,8L596.4,276.4z M1191,820.3
		l-1.1-0.5c-0.3,0.6-0.7,1.2-1.2,1.7c-1.9,2.1-4.5,6.3-5.8,5.9c-3.1-1-5.7-3.1-7.2-6c-2.6-5.6-4.6-11.4-6-17.4
		c-5.6-24-6.9-48.4-5.2-72.8c0.6-9.6,3-19.2,5.4-28.7c0.7-2.7,4.1-4.8,6.3-7.1c2.4,2.2,5.5,4,6.9,6.7c2.5,4.8,4,10.2,5.9,15.4
		c-1.7-11.1-4.2-22-10.7-31.4c-4.1-6-9.4-6.2-12.7,0.3c-3.1,6.1-5.3,12.6-6.5,19.4c-6.2,36-4,71.8,4.7,107.2c2,7.3,5,14.3,9,20.8
		c3.8,6.3,9,5.9,12.6-0.5C1187.8,829.4,1189.2,824.7,1191,820.3z M370.5,697.2v1.2c1.2,0.4,2.4,0.7,3.6,0.9
		c35.6,3.2,71.3,3.4,106.9,0.8c14.3-1.1,23.4-10.8,24.1-25.2c0.2-3.6,0.1-7.2,0-10.9c-0.3-14.3-9.5-24.7-23.7-25.4
		c-36.9-1.9-73.9-1.3-110.7,2c-2.7,0.2-5.4,0.5-8,0.8c2.6,1.1,5.1,1.1,7.6,1.1c36.7,0.7,73.5,1.4,110.2,2.3
		c10.3,0.3,16.4,6.1,17.7,16.3c0.6,4.7,0.8,9.4,0.4,14.1c-1,11.8-6.6,17.6-18.6,18.7c-16.2,1.5-32.5,2.8-48.7,3.2
		C411,697.6,390.7,697.2,370.5,697.2z M350,356.3c-18.9,66.9-29,136-30.1,205.5C333.7,493.9,343.8,425.3,350,356.3z M1191.3,772.5
		c-1.4-12.3-2.4-24.9-4.6-37.3c-1.2-7-4-13.8-6.9-20.4c-1.8-4.1-5.5-3.8-6.9,0.5c-1.9,5.8-2.8,11.9-4,17.9c-0.1,0.9,0.2,1.8,0.7,2.5
		c9,15.3,7.5,31.8,5.2,48.3c-0.3,2-2.7,4-2.4,5.6c1.5,5.9,3.4,11.8,5.7,17.4c0.9,1.9,2.6,3.2,4.7,3.7c1.1,0.1,2.7-2.5,3.6-4.1
		c0.9-1.6,1.4-3.3,1.6-5.1C1189.3,792,1190.2,782.5,1191.3,772.5L1191.3,772.5z M287.7,362.8l-1.4-0.2
		c-12.7,24.7-33.6,175.5-26.9,203.3L287.7,362.8z M804,735.6c-5.1,32-21,55.1-50.6,66.7c-29.2,11.5-56.6,5.9-81.6-12.9
		c20.8,26.3,59.4,35.1,88.8,21.3C792.1,796,807.2,761.5,804,735.6z M1233.1,820.2l-1.2-0.4c-0.3,1-0.7,2-1.3,2.9
		c-1.6,1.8-3.3,4.7-5,4.8s-4.4-2.4-5.4-4.3c-2-3.8-3.6-7.9-4.7-12.1c-5.8-22.2-7.2-45-5.9-67.8c0.7-8.8,2-17.6,3.9-26.2
		c0.7-3.6,1.7-9.2,6.5-8.5c2.8,0.5,5,5.2,7.3,8.2c0.8,1.1,0.9,2.7,1.4,4c0.4,1.1,1,2.2,1.4,3.3l1.9-0.8c-3.6-8.1-6.8-16.5-11.1-24.3
		c-2.7-4.8-7-4.5-9.7,0.4c-2.4,4.2-4.2,8.8-5.2,13.5c-6.3,31.9-4.9,63.8,1.9,95.4c2,8.4,5,16.6,8.9,24.2c3.2,6.5,8.2,6,11.6-0.4
		C1230.4,828.4,1231.6,824.2,1233.1,820.2L1233.1,820.2z M1232.3,781.2c-0.7-10.1-0.8-18-2-25.6c-1.4-8.6-3.3-17-5.7-25.4
		c-0.7-2.5-3.7-4.4-5.6-6.6c-1.5,2.3-3.8,4.5-4.4,7c-1.2,5.6-2.3,10.5,1.2,17.1c6.4,12.2,6.1,26.6,3.1,40.3
		c-0.4,1.8-3.4,3.7-3.1,4.9c1.7,6,3.8,12,6.3,17.7c1.2,2.7,3.8,1.8,5.2-0.4c1.1-1.7,1.8-3.5,2.2-5.5
		C1230.6,796.2,1231.6,787.6,1232.3,781.2L1232.3,781.2z M800.6,515c-16.1-23-44.6-33.8-69.9-26.9c-26.7,7.3-49.7,33-52,58.7
		c1-1.6,1.7-2.6,2.2-3.6c8.3-14.7,19-27.3,33.4-36.4c17.2-11,35.6-16,55.8-10.7C782.2,499.2,792,506.3,800.6,515z M759.3,226.2
		c-0.1-0.4-0.2-0.8-0.3-1.2c-10.8,0.7-21.6,1.3-32.4,2.1c-30.9,2.3-61.8,4.5-92.6,7.1c-12.2,1-24.7,1.5-36.4,4.8
		c-27.6,7.9-54.8,17.4-82.2,26.2c-12.1,3.9-17.6,11.9-17.1,25.9c1-2.7,1.8-5.4,2.5-8.2c1.7-9.1,7.3-13.5,16.2-15.8
		c18.7-4.9,37.1-10.9,55.7-16.4c11.6-3.4,23.1-8.3,35-9.7c33.2-3.9,66.7-6.3,100-9.5C724.8,230,742.1,228,759.3,226.2z M994.1,599.5
		l-0.4,1.3c13.3,4.4,26.6,9,40,13.2c17.5,5.6,35.1,11.1,52.8,16.5c7.5,2.3,16-2.3,16.8-9.3c0.7-5.9,0.1-11.9,0.1-17.9
		c-0.8,0.3-1.5,1-1.8,1.9c-4,11.6-9.3,15.1-21.3,12.8c-16.5-3.2-32.9-6.9-49.3-10.4C1018.7,605,1006.4,602.2,994.1,599.5z
		 M949.9,641.9c4.3-12.3,2.9-23.2-4.3-33.3c-5.2-7-8.2-15.4-8.8-24.1c-0.6-9.5-1.6-18.9-2.4-28.3c-7,0.7-7,0.7-7,6.7
		s-0.3,11.6,0.4,17.3c0.9,8.2,0.9,17.2,4.3,24.3c5.4,10.9,10.9,21.2,7.8,33.8L949.9,641.9z M1026.5,400.8h1.5
		c0,6.1-0.3,12.3,0.1,18.4c0.3,8,4.6,15.2,11.4,19.4c9.9,6.3,20,12.3,30.1,18.4c5.8,3.4,10.2,1,10.1-5.5
		c-0.3-18.6-0.7-37.2-1.1-55.9c0-5.9-2.9-11.4-7.8-14.7c-10.7-7.7-21.2-15.7-32.1-23.1c-2.2-1.5-6.3-2.8-8-1.7
		c-2.2,1.3-3.8,5.1-3.9,7.9C1026.2,376.2,1026.5,388.5,1026.5,400.8L1026.5,400.8z M892.9,354.5c9.7,0,18.3-7.9,18.2-16.5
		s-8.7-16.3-18.5-16.1s-17.7,7.4-17.9,16.1S883.2,354.6,892.9,354.5z M963.3,646.5c5.7-16.5,2.9-31.5-4.8-45.5
		c-3.6-6.5-5.5-13.7-5.5-21.1c-0.1-5.6-0.5-11.2-0.2-16.8c0.3-5.4-2.1-7-7.6-6.7c0,11.7-0.2,23.2,0.2,34.8c0.2,3.4,1.2,6.8,3,9.7
		c8,13.2,10,26.8,4,41.8L963.3,646.5z M902.7,738.6c0.4,3,0.8,5.1,0.9,7.2c0.2,5,2.4,6.7,7.7,7c17.8,1,35.7,2.9,53.5,4.4
		c2.2,0.2,5.3,2.1,6-2.1c0.8-4.7-1.3-8.3-5.1-8.8c-7.7-1-15.4-1.9-23.1-2.9C929.5,741.8,916.4,740.3,902.7,738.6z M1054,534.6h1.9
		c0,17.9-0.1,35.8,0.1,53.8c0.1,8.3,4.1,14.5,11.6,18.2c2.9,1.4,6,2.6,9,3.8c6.8,2.8,11.4-0.5,11.2-7.9c-0.7-25.3-1.3-50.7-2-76
		c-0.1-5.5-2.4-9.8-7.2-12.6s-9.3-5.7-14.1-8.1c-2.2-1-5.8-1.9-7.3-0.8c-1.9,1.3-2.9,4.8-3,7.4C1053.7,519.8,1054,527.2,1054,534.6
		L1054,534.6z M230.4,376.4c-10.7,19.5-34.8,173.1-29.7,188.5C210.6,502.3,220.5,439,230.4,376.4z M563.7,216.5l2.5,0.7
		c0.7-2,2.1-4,1.9-5.9c-1.3-14.4,1.7-27.7,9.9-39.7c0.1-0.1,0.2-0.3,0.3-0.5c2.8-4.4-0.2-6.9-3.3-8.8c-3.3-2-6.4-2-9.2,2.1
		c-11.8,17.1-13.7,36-10.9,56.1c4.7-0.4,7.3-2.6,6.8-7.9c-0.3-3.4-0.1-6.9-0.1-10.3c0-2.5-0.2-5.1,0.1-7.6s0.9-4.9,1.3-7.3l0.6,0.2
		L563.7,216.5z M867.2,312.1c-0.3-6.3-2.8-9-8.9-7.4c-4.7,1.2-9.8,1.4-14.1,3.5c-17,7.9-34,16.1-50.6,24.8
		c-8.8,4.6-13.5,12.7-14.9,23.2l7.5,0.5c1.5-11.5,9.3-17.2,18.9-21.4c5-2.1,9.7-4.9,14.6-7.1C835,321.3,849,310.5,867.2,312.1z
		 M769.7,384.1c0,5.4,0,10.9,0,16.3c0,3.5,1.7,5.4,5.2,5.4c2,0,4-0.1,6,0c3.7,0.2,5.6-2,5.7-5.2c0.2-10.9,0.3-21.8,0-32.6
		c-0.1-4.5-3.5-5.9-10.6-5.5c-4,0.2-6.5,1.7-6.4,6.3C769.8,373.9,769.7,379,769.7,384.1L769.7,384.1z M1086.7,300.3
		c-1.3-5.2-2.1-10.6-4.1-15.5c-1.9-4.7-4.2-9.9-7.9-13.3c-16.7-15.5-34.5-29.9-54.4-41.2c-10.4-5.9-21.4-10.9-32.1-16.3l-0.7,1.2
		C1026.1,237.1,1063.3,260.5,1086.7,300.3L1086.7,300.3z M469.5,653.9c-4,0-8-0.1-11.9,0c-5.7,0.1-10.3,4.6-10.6,10.3
		c-0.3,4.7-0.3,9.4,0,14.1c0.3,5.4,4.3,9.8,9.6,10.1c8.7,0.4,17.4,0.5,26,0c5.7-0.3,9.3-4.9,9.4-10.7c0.1-4.3,0.1-8.7,0-13
		c0-5.9-4.7-10.7-10.6-10.8C477.5,653.7,473.5,653.9,469.5,653.9z M1115.6,761.5c-1.1-0.2-2.2-0.3-3.3-0.3c-1.2,0.1-2.3,0.3-3.5,0.5
		c0.9,24.1,4.1,47.3,11.8,70c1.8,5.2,4.5,6,9.3,4.6C1119.6,812.3,1116.8,787.2,1115.6,761.5z M840.3,572.9c0.5,1.7,0.9,3.4,1.2,5.2
		c0.4,6.2,3.6,8.6,9.9,9.5c15,2.2,29.8,5.4,44.8,8.1c7.3,1.3,14.6,2.5,21.9,3.7c0.1-0.3,0.2-0.7,0.2-1L840.3,572.9z M134.1,559.4
		c9.9,1.1,11.3,2.9,9.8,11.4c-0.8,4.3-1.9,8.5-2.6,12.7c-1.5,8.8-6.6,13.7-15.3,15.1c-2.5,0.4-4.9,1-7.3,2c-1.2,0.5-1.9,1.9-2.9,3
		c8.9-0.2,17.8-1.1,26.5-2.7c1.1-0.2,2.6-2.3,2.8-3.7c1.6-13.8,3-27.7,4.4-41.5c0.4-4.3,0.8-8.6,1.2-13l-1.4-0.6L134.1,559.4z
		 M146.2,700.4v-1.5c-14.8-0.4-29.5-0.9-44.2-1.2c-6.5-0.2-8.8-1.8-9-8.2c-0.3-8.1,0-16.3,0-24.4c0-5.4,2.6-8.3,8-9.1
		c14.8-2.2,29.5-4.4,43.1-6.5c-16-1.2-32,0.1-47.6,3.7c-4.8,1.2-7.4,5.3-7.5,10.2c-0.2,9.4-0.4,18.8,0,28.2
		c0.2,5.7,4.9,10.2,10.6,10c0,0,0.1,0,0.1,0C115.2,701.3,130.7,700.7,146.2,700.4L146.2,700.4z M819.6,206.3
		c11.4-3.3,22-8.2,32.8-8.9c11.3-0.8,22-3.2,32.7-6.1c-23.4-4.6-46-2.5-67.8,9.4C818.1,202.6,818.9,204.6,819.6,206.3z M784.8,268.6
		l-0.7-0.2c-0.4,1.3-0.8,2.6-1.2,4c-4.6,20.1-9.2,40.2-13.8,60.3c-2.3,10.1-2.3,10-12.9,10.2c-11.2,0.2-22.5,0.7-33.7,1
		c0,0.4,0,0.8,0,1.1l46,7.8C774,324.2,779.4,296.4,784.8,268.6z M894.2,361.3l-2.3-0.2c-0.3,1.4-0.5,2.8-0.6,4.2
		c0,4.7,0.2,9.4,0.2,14.1c0.4,35.3,1.2,70.6,1.1,105.9c-0.1,22.9,2.7,45.9,0.2,68.9c1.1-3.1,2.3-6.4,2.3-9.6
		C894.8,483.5,894.5,422.4,894.2,361.3z M796.7,323h1.3c1-7.5,2-15,3-22.4c2-15.6,3.9-31.2,6.1-46.9c0.7-5.4,3.6-6.8,8.4-4.4
		c3.7,1.9,7.3,3.9,11,5.8c12.7,6.7,25.5,13.3,38.2,20l1.3-1.4c-1.3-1.5-2.2-3.6-3.8-4.4c-14.9-7.8-29.9-15.5-44.9-23.1
		c-7.5-3.8-13.1-0.4-13.9,8.1c-0.8,8.8-1.9,17.6-2.7,26.4C799.3,294.9,798,309,796.7,323z M136.7,680.5c0-1.5,0-2.9,0-4.3
		c-0.1-7.6-2.5-10.1-10-10.2c-3.6,0-7.3-0.1-10.9,0c-4.7,0.2-7.4,2.9-7.8,7.5c-0.3,4.5-0.4,9.1-0.1,13.6c0.3,4.9,3.4,7.5,8.2,7.8
		c4.2,0.2,8.3,0.2,12.5,0c4.9-0.2,7.9-3.4,8.1-8.4C136.7,684.5,136.7,682.5,136.7,680.5L136.7,680.5z M880.7,381.8l-62.1-23.1
		l-0.5,1.3l66.4,27c0-9.1,0.1-17-0.1-24.9c0-1.2-1.6-2.3-2.5-3.5l-1.2,0.6L880.7,381.8z M1203.6,695.8h-15.2
		c2.4,11.1,4.8,21.8,7,31.9C1198.1,717.4,1200.8,706.7,1203.6,695.8L1203.6,695.8z M652.6,197.1c0.3-0.9,0.6-1.9,0.9-2.9
		c-4.8-2.4-9.3-5.3-14.3-7.1c-8.7-3.2-13.9,1.6-12.8,10.5c2.2-1,4.7-3.1,7-3C639.9,195,646.3,196.3,652.6,197.1L652.6,197.1z
		 M673.1,192.7c2.3-1,4.5-2.8,6.6-2.7c6.8,0.2,13.5,1.1,20.3,1.7c0.2-0.6,0.4-1.2,0.6-1.8c-4.2-2.3-8.2-4.9-12.5-6.7
		C678.4,179,673.8,182.2,673.1,192.7L673.1,192.7z M872.7,509.5l-1.3,0.1c-0.4,6.1-0.3,12.2-1.2,18.2c-1.5,10,2.8,10.6,9.5,12.6
		c4.2,1.2,7.2-1.1,7.1-5.6c-0.1-5.2-0.7-10.4-1.1-15.6h-0.8c-0.6,5.8-1.2,11.5-1.8,17.2c-6.6-0.2-9.4-2.5-9.3-8.7
		S873.1,515.6,872.7,509.5z M890.5,802.2c2.7,11.3,10.6,18.8,18.5,18.7c7.2-0.2,14.2-6.8,15.9-15.2
		C913,820.8,898.1,816.3,890.5,802.2z M326.6,784.7c0.9-1.2,3.5-3.2,4-5.6c0.8-3.8-4.7-8.7-8.8-8.6c-3.4,0.1-5.9,1.7-6,5.5
		C315.6,780.1,320.4,784.6,326.6,784.7z M135.9,585.9c1.1-5.9,2.4-12.4,3.8-19.6c-3.5,0-6.2-0.6-8.4,0.2c-2,0.7-3.8,2.6-5.1,4.3
		c-0.4,0.6,0.5,2.6,1.2,3.6C130.1,578.3,133,582,135.9,585.9z M295.5,779.1c0.1-4-3.5-8.6-6.3-7.4c-2.9,1.4-5.2,3.8-6.4,6.7
		c-1.2,3.3,2.9,7.3,6.3,7.1C293.3,785.3,294.9,782.5,295.5,779.1L295.5,779.1z M957,802.4c0.8,11.2,7.3,19.3,14.6,19.7
		c5.9,0.3,12.3-6.8,13.6-14.9C974.3,823.5,962.5,817.2,957,802.4z M808.3,832.9l-11.9,8.9h20L808.3,832.9z M258.7,761.6l5.7,6
		l5.8-6.2c-1.7-1.3-3.3-3.6-5-3.8S261.7,759.7,258.7,761.6z M590.7,205.8l16.5-5.2C598.5,196,591.8,196.7,590.7,205.8L590.7,205.8z
		 M118.3,596l14-5.8C118.3,588.8,120.6,587.4,118.3,596z M783.8,447.2h0.5V414h-0.5V447.2z"/>
	<path class="st0" d="M764,656.2c-0.1-1.2-0.1-2.5,0-3.7c0.6-2.1,1.5-4.1,2.3-6.1c1.9,1.6,4.6,2.8,5.6,4.8c2.8,5.5,1.3,9.2-3.8,10.2
		c1,1.4,1.9,2.7,2.7,4c0.9,1.3,1.4,2.9,1.3,4.5c-1.5-1.9-3-3.8-4.6-5.7c-17.8-20.2-43.9-18.3-58.5,4.3c-14.5,22.3-13,54.2,3.4,74.9
		c14.6,18.4,39.2,18.2,55.3-0.5c1.4-1.9,3.1-3.7,5-5.2c-0.3,1-0.7,2-1.2,3c-17.2,28.9-52.6,30.2-72.1,2.7
		c-18.6-26.2-15.6-65.9,6.5-86.9c16.5-15.7,37.8-16.5,55.5-2.2C762.2,655,762.9,655.5,764,656.2z"/>
	<path class="st0" d="M674.1,709.5c6.2,0,10.8,4,10.6,9.2c-0.2,5-4.7,8.8-10.5,8.8c-6.2,0-10.5-3.8-10.4-9.3
		C663.8,713.1,668.1,709.5,674.1,709.5z"/>
	<path class="st0" d="M691.2,764.8c-5,0-7.9-2.5-7.9-6.8c0-5.3,4.8-9.3,11.1-9.2c4.7,0.1,8,3,7.8,7C702,760.7,697,764.8,691.2,764.8
		z"/>
	<path class="st0" d="M677,665.3c6.5,0,11.4,3.9,11.3,9.1s-3.8,6.1-7.8,6.3c-6,0.3-11.5-4.1-11.7-9
		C668.6,667.7,671.6,665.3,677,665.3z"/>
	<path class="st0" d="M734.3,774.7c0,5.2-4.1,9.9-8.7,10.1c-4,0.2-6.7-2.9-6.7-7.5c0-5.3,4.1-9.7,8.9-9.7S733.9,770.7,734.3,774.7z"
		/>
	<path class="st0" d="M699.4,634.9c5.5,0.1,10.9,5.1,10.9,10.2c0,4-2.5,5.4-6,5.4c-5.2,0-11-5.6-10.9-10.3
		C693.4,636.2,695.7,634.8,699.4,634.9z"/>
	<path class="st0" d="M768.3,766.8c-2.6,3.8-4.5,7-6.9,9.8c-0.5,0.6-4.1-0.2-4.2-0.6c-0.6-3.7-1.6-7.7-0.7-11.2
		c0.6-2.2,4.1-3.7,6.3-5.6L768.3,766.8z"/>
	<path class="st0" d="M742.6,638.9c-0.7,0.6-2,2.8-3.7,3.1c-3.6,0.7-8.4-5-8.1-9.7c0.1-1.7,2.1-4.3,3.7-4.6
		C738.2,626.8,742.5,632.4,742.6,638.9z"/>
	<path class="st0" d="M792.9,694.6l-4.5,5.9c-1.6-1.5-4.2-2.8-4.5-4.5c-0.5-3.3,0.2-6.8,0.7-10.2c0-0.3,2.9-0.8,3.2-0.3
		C789.5,688.2,791,691.2,792.9,694.6z"/>
	<path class="st0" d="M789.4,734.9c-2,3.2-3.8,6.2-5.9,9.1c-0.3,0.4-3.1-0.5-3.1-0.7c0-3.6-0.3-7.4,0.6-10.8
		c0.4-1.6,3.3-2.5,5.1-3.7L789.4,734.9z"/>
	<path class="st0" d="M954.1,368.7c-5.8-0.2-9.7-3.7-8.8-7.1c0.9-2.2,2.7-3.8,4.9-4.5c3.7-0.8,8.2,3.9,7.3,7.5
		C957.1,366.4,954.9,367.8,954.1,368.7z"/>
	<path class="st0" d="M952.7,521.1c5.3,0.3,9.5,4.1,8.7,7.5c-0.4,1.7-3,4-4.8,4.2c-4.1,0.5-8.3-3.9-7.4-7.5
		C949.6,523.5,951.8,522,952.7,521.1z"/>
	<path class="st0" d="M929.2,313.7c-1-1.5-3.5-3.6-3.6-5.8c-0.3-4.1,2.9-6.1,6.7-6.1c3.3,0,5.9,1.8,5.7,5.7
		C937.7,312.1,934.3,312.9,929.2,313.7z"/>
	<path class="st0" d="M948,517.5c-5.7-0.4-9-2.2-8.5-6.2c0.3-2,3.3-4.6,5.5-5.2c3.2-0.9,7.8,3.5,6.9,6.5
		C951.3,514.8,948.9,516.5,948,517.5z"/>
	<path class="st0" d="M933.3,397.4c-2.8-3.6-5.5-5.6-5.8-8c-0.4-3.6,2.5-5.9,6.2-6s6.8,2,6.1,5.8
		C939.2,391.7,936.3,393.7,933.3,397.4z"/>
	<path class="st0" d="M920,328.3c-0.7-0.8-2.9-2.3-3.4-4.1c-0.9-3.5,3-7.4,6.8-7.6c3.4-0.1,5.5,1.6,5.7,5.1
		C929.2,324.9,925.5,328.1,920,328.3z"/>
	<path class="st0" d="M935,451.7c-3-3.5-6-5.3-6.3-7.6c-0.5-3.5,2.1-5.8,6-6s6.8,1.9,6.5,5.4C940.8,445.9,937.8,448,935,451.7z"/>
	<path class="st0" d="M914.4,506.9c-0.7-1-2.5-2.5-2.8-4.3c-0.5-3.7,4-8.2,7.5-7.5c2.2,0.7,3.9,2.4,4.7,4.6
		C924.6,503.2,919.8,507,914.4,506.9z"/>
	<path class="st0" d="M936,506.2c-2.9-3.7-5.6-5.6-6-7.9c-0.6-3.8,2.2-5.9,6-5.9s6.8,1.9,6.2,5.6C941.9,500.5,939,502.5,936,506.2z"
		/>
	<path class="st0" d="M942.8,478.6c5.7,0.2,9.4,3.7,8.3,7c-0.6,1.9-3.4,4-5.4,4.3c-3.7,0.5-7.2-1.6-6.8-5.7
		C939.1,482,941.9,479.9,942.8,478.6z"/>
	<path class="st0" d="M946.9,463.2c-5.5-0.5-8.6-2-8.8-6.1c-0.2-3.6,2.3-5.6,5.9-5.6c3.9,0.1,6.8,2.4,6.6,6.3
		C950.4,459.9,947.8,461.8,946.9,463.2z"/>
	<path class="st0" d="M921.1,382.5c-0.8-1-3.3-2.9-3.3-4.8c0-4,2.9-7,7-6.5c2.4,0.6,4.4,2.2,5.3,4.5
		C931.2,378.9,927.1,382.4,921.1,382.5z"/>
	<path class="st0" d="M922.2,410c-1-1.2-3.5-2.9-3.6-4.8c-0.3-4.1,2.4-6.6,6.6-7c3.5-0.3,5.8,1.2,5.8,4.8
		C930.9,407.4,927.8,409,922.2,410z"/>
	<path class="st0" d="M939.3,315c5.8,0.5,8.8,2.5,8,6.5c-0.4,2-3.5,4.5-5.7,4.8c-3.7,0.6-7.1-1.7-6.5-5.8
		C935.4,318.2,938.2,316.3,939.3,315z"/>
	<path class="st0" d="M935.1,531.2c-1.1-1.3-4-3.1-4.5-5.4c-0.8-3.7,2.2-6,5.8-6.2s6.4,1.6,6.6,5.6
		C943.2,529.3,940.5,530.7,935.1,531.2z"/>
	<path class="st0" d="M951.6,493.8c5.4-0.1,9.9,3.7,9.2,7.3c-0.3,1.8-2.8,4.1-4.7,4.4c-3.7,0.6-8.4-3.8-7.8-7.1
		C948.8,496.4,950.8,494.8,951.6,493.8z"/>
	<path class="st0" d="M926.5,517.9c-3.5,0.2-5.9-1.3-5.6-4.9c0.4-4.1,3.2-6.8,7.3-6.2c2,0.3,4.6,2.8,5.2,4.8
		C934.3,515.1,930.7,517.9,926.5,517.9z"/>
	<path class="st0" d="M944.9,381.2c-5.6-0.5-8.7-2-8.7-6.2c0-3.5,2.4-5.5,6.1-5.4c4.1,0.1,6.8,2.5,6.5,6.3
		C948.7,378.1,945.9,380,944.9,381.2z"/>
	<path class="st0" d="M942.6,396.9c3.9,0.3,6.6,2.1,6.7,6.3c0.2,3.7-2.2,5.2-5.6,5s-6.5-1.2-6.8-5.5
		C936.7,398.8,939,397.2,942.6,396.9z"/>
	<path class="st0" d="M941.1,424.2c5.8-0.2,9.5,2.8,8.7,6.4c-0.8,2.3-2.7,4-5,4.7c-4.3,0.9-8-2.1-7.2-5.6
		C938.1,427.3,940.3,425.4,941.1,424.2z"/>
	<path class="st0" d="M922.4,436.8c-0.8-1.1-3.2-2.9-3.3-4.8c-0.1-4.1,2.7-6.5,6.9-6.7c3.4-0.2,5.8,1.6,5.6,5
		C931.4,434.6,928.3,436.4,922.4,436.8z"/>
	<path class="st0" d="M923.2,463.9c-0.8-1-3.3-2.7-3.4-4.6c-0.3-4.1,2.5-6.5,6.7-6.8c3.5-0.3,5.7,1.6,5.7,4.9
		C932.2,461.7,929.1,463.5,923.2,463.9z"/>
	<path class="st0" d="M952.8,313.8c-5.9-0.4-9.1-2.3-8.7-6.6c0.2-1.8,3-4.2,5.1-4.7c3.5-0.8,8.1,3.5,7.3,6.8
		C956,311.3,953.6,312.9,952.8,313.8z"/>
	<path class="st0" d="M929.9,340.9c-1.1-1.7-3.6-3.8-3.8-6.1c-0.2-4.1,3.5-6.1,7-5.5c2,0.4,4.8,3.3,5.1,5.4
		C938.9,338.9,935.2,340,929.9,340.9z"/>
	<path class="st0" d="M914.1,479.9c-0.7-0.9-2.7-2.2-3.1-4c-0.8-3.6,3.3-8.2,7.2-7.8c2.2,0.5,4,2.1,4.8,4.2
		C923.9,475.7,919.5,479.7,914.1,479.9z"/>
	<path class="st0" d="M935.5,478.9c-2.9-3.5-5.6-5.4-6.1-7.7c-0.7-3.8,2.2-5.9,6-6s6.7,2,6,5.8C941,473.4,938.3,475.3,935.5,478.9z"
		/>
	<path class="st0" d="M954.4,396.2c-5.5-0.5-9.7-4.5-8.5-7.5c1.2-2.2,3.3-3.7,5.7-4.2c3.5-0.4,7.7,4.7,6.6,7.6
		C957.5,394,955.2,395.3,954.4,396.2z"/>
	<path class="st0" d="M936.3,410.4c1.1,1.6,3.8,3.6,4.1,6c0.5,4.2-3,5.7-6.8,5.6c-3.2,0-5.6-1.4-5.5-5.1
		C928.1,412.5,930.9,411,936.3,410.4z"/>
	<path class="st0" d="M955.7,423.3c-6-0.1-9-2.9-9.1-6.9c0-3.6,2-4.7,5.2-4.6c4,0.1,7.8,3.5,7.1,7.2
		C958.5,420.9,956.3,422.4,955.7,423.3z"/>
	<path class="st0" d="M913.1,452.7c-0.7-0.9-2.6-2.4-2.9-4.2c-0.5-3.5,4.3-8.3,7.7-7.5c1.9,0.4,4.4,2.8,4.7,4.6
		C923.2,449,918.6,452.8,913.1,452.7z"/>
	<path class="st0" d="M915.3,533.8c-0.7-0.8-2.8-2.1-3.2-3.8c-0.7-3.8,3.9-8.5,7.7-7.7c2.1,0.8,3.8,2.5,4.4,4.7
		C924.9,530.5,920.8,533.8,915.3,533.8z"/>
	<path class="st0" d="M935.1,356.4c0.9,1,3.6,2.9,4,5.2c0.7,4.2-2.8,6.4-6.5,5.8c-2.2-0.3-5.6-2.8-5.8-4.7
		C926.3,359.1,928.8,356.4,935.1,356.4z"/>
	<path class="st0" d="M911.2,371.6c-0.6-1-2.3-2.5-2.5-4.3c-0.4-3.8,3.8-8,7.4-7.3c2.1,0.7,3.8,2.3,4.5,4.4
		C921.2,367.8,916.6,371.6,911.2,371.6z"/>
	<path class="st0" d="M911.9,398.4c-0.6-0.8-2.6-2.1-2.8-3.8c-0.6-3.8,3.3-7.6,7.3-7.8c3-0.1,4.9,1,5,4.2
		C921.5,394.8,917.7,398.4,911.9,398.4z"/>
	<path class="st0" d="M920.5,355.4c-0.7-1-2.7-2.6-3-4.5c-0.7-3.6,3.3-7.7,6.9-7c2.3,0.7,4.2,2.4,5,4.7
		C930.2,352,926.1,355.4,920.5,355.4z"/>
	<path class="st0" d="M912.6,425.6c-0.6-0.8-2.6-2.2-2.9-3.9c-0.6-3.7,3.7-8.2,7.3-7.7c1.8,0.3,4.3,2.5,4.7,4.3
		C922.6,421.9,918.4,425.4,912.6,425.6z"/>
	<path class="st0" d="M950.2,439.1c5.5-0.1,9.8,3.4,9.3,6.8c-0.3,1.8-2.6,4.2-4.4,4.6c-3.6,0.9-8.3-3-7.8-6.3
		C947.5,442.1,949.5,440.3,950.2,439.1z"/>
	<path class="st0" d="M953.1,341.7c-5.3-1.2-8.5-2.8-8.5-7.3c0-3.7,2.6-5.2,5.8-4.8c4,0.5,7,3,6.5,7.1
		C956.7,338.7,954.1,340.4,953.1,341.7z"/>
	<path class="st0" d="M943.7,354.6c-5-1.2-8.1-2.4-8.1-6.8c0-3.8,2.4-5.5,6-5.4c3.9,0.1,6.9,2.2,6.4,6.2
		C947.8,350.8,945.2,352.6,943.7,354.6z"/>
	<path class="st0" d="M957.1,478c-5.9,0-9.4-3.1-9.4-6.7c0-3.4,1.9-4.8,5.1-4.8c4,0,7.7,3.3,7.2,7.1
		C959.8,475.5,957.8,477.1,957.1,478z"/>
	<path class="st0" d="M925.4,490.8c-3,0.3-4.9-1-5-4.5c-0.1-3.7,3.2-7.2,6.9-6.5c2.4,0.7,4.3,2.4,5.2,4.6
		C933.6,487.9,930,490.7,925.4,490.8z"/>
	<path class="st0" d="M1039.7,757.7c-5.3,6.2-10.5,10.7-19.5,9.5c-13.2-1.7-26.7-2.2-40-3.2c-0.7-0.1-1.4-0.3-2.1-0.5
		c2.8-3.8,5.4-7.5,8.2-11c0.7-0.9,1.8-1.5,3-1.5c16.5,1.9,33,3.9,49.5,6C1039.1,757,1039.2,757.2,1039.7,757.7z"/>
	<path class="st0" d="M1040.3,681.1c5.8-0.1,9.1,2.3,11.6,7c13.1,24.6,9.8,56.7-8.2,76.7c-3.3,3.7-6.8,5.6-12.6,3.5
		c14.5-10.4,21.3-24.7,22.9-41.5S1051.3,694.7,1040.3,681.1z"/>
	<path class="st0" d="M1051.8,727.1l-54-7c0.2-2.6,0.3-5,0.5-7.9l53.5,8.6L1051.8,727.1z"/>
	<path class="st0" d="M1040.8,686.7l-32.7-6.8c-2.7-0.6-5.3-1.5-8-1.7c-6.9-0.4-10.9-3.9-12.3-11c15.4,3.9,30.9,7.5,46.1,11.8
		c2.9,0.8,5,4.3,7.4,6.6L1040.8,686.7z"/>
	<path class="st0" d="M976.3,672.8c-8.2-1.7-15.9-2.4-22.7-5.2c-3.7-1.5-5.9-6.7-8.4-10.7C956.1,660.6,969.8,658,976.3,672.8z"/>
	<path class="st0" d="M985.8,710.3v8.1l-24-2.7c0.2-2.9,0.4-5.5,0.6-9.1L985.8,710.3z"/>
	<path class="st0" d="M1044.4,768.2c3.9-9.5,10.6-11.8,19.4-8.2C1061,767.7,1054.5,770.6,1044.4,768.2z"/>
	<path class="st0" d="M1062.2,728.5v-5.4c13.7,0.6,13.9,0.7,13.3,6.9L1062.2,728.5z"/>
	<path class="st0" d="M1052.5,682.5l10.9,7.6c-7.3,1.1-7.3,1.1-11.8-6.2C1051.9,683.4,1052.2,682.9,1052.5,682.5z"/>
	<path class="st0" d="M1143.5,725.9c0,5.2,0.2,10.3-0.1,15.4c-0.3,4.3-3,7.1-7.3,7.2c-8.4,0.2-16.9,0.1-25.6-0.5
		C1125.1,745.9,1137.3,740.5,1143.5,725.9z"/>
	<path class="st0" d="M907.8,247.2c0,17,0,34,0,50.9c0,3.8-2.2,6.4-5.9,6.6c-6.1,0.4-12.3,0.1-18.4-0.9c3.2-0.9,6.4-1.9,9.6-2.8
		c6.3-1.9,9.5-6,10.1-12.6c1.2-13.8,2.5-27.7,3.8-41.5L907.8,247.2z"/>
	<path class="st0" d="M591.4,535.8c-4.2,11.6-8.4,22.8-12.2,34c-1.2,3.5-3.7,2.8-6,2.8c-33.7,0-67.4,0-101.1,0
		c-5.3,0-10.5,0.1-15.8,0c-6.7-0.1-8.6-2.7-4.9-8.3c3.4-5.3,7.7-9.8,12.8-13.5c11.7-8.1,25.4-11,39.3-13.2
		C532.8,533.1,562.2,533.2,591.4,535.8z M584.9,540c-0.7-0.1-1.4-0.3-2-0.4c-27-2.4-54.3-1.5-81.1,2.8c-13.7,2.3-26.8,6-38.2,14.2
		c-2.5,1.8-4.6,4.4-6.4,6.1c8.7-3.7,17.6-7.5,26.5-11.3c3.6-1.5,6.6-0.9,9.9,1.6c8.6,6.6,19.9,5.8,25.5-2.6
		c3.7-5.5,8.1-6.2,13.5-6.6c6.8-0.5,13.7-1,20.6-1.2c6.4-0.2,12.9,0,19.3,0v1l-36,14.4l0.3,0.9l38.1-8.6c-0.3,6-0.7,11.5-1,17.1h0.8
		C578,558.4,581.4,549.3,584.9,540z M567.6,568.5c-35.1-9.1-69.3-3.1-103.5,0H567.6z"/>
	<path class="st0" d="M585.4,571.5c4.7-10.9,9-21,13.5-30.9c0.4-0.9,2.7-1.6,3.9-1.4c13.5,2.1,27.1,4.3,40.5,6.8
		c5.7,1.1,7.4,5.4,4.4,10.6c-7.7,13.6-21,20.2-36.8,18.2C603,573.8,595,572.8,585.4,571.5z M596,557.9l32.7-8.6
		c-7.3-1.2-15.8-2.7-24.3-4c-1.2-0.1-2.3,0.4-3.1,1.2C599.3,550.4,597.6,554.5,596,557.9z"/>
	<path class="st0" d="M1076.5,422.8c0,9.2,0,18.4,0,27.7c0,5-1.6,6.1-5.9,3.5c-10.1-6-20.1-12.1-30-18.5c-5.7-3.5-9.2-9.7-9.2-16.4
		c-0.6-18.8-1.1-37.6-1.6-56.4c-0.1-4.2,2.5-5.9,5.9-3.4c11.6,8.3,23.4,16.5,34.4,25.5c2.9,2.3,4.5,7.4,4.8,11.4
		c0.7,8.8,0.2,17.7,0.2,26.6H1076.5z M1036.9,371.2l23,14.8l0.8-1.1c-6.6-5-13.1-10.1-19.8-15c-2.9-2.1-6.3-1.5-6.6,2.2
		c-0.4,6.2,0.5,12.6,0.8,18.9l1.8-0.1L1036.9,371.2z"/>
	<path class="st0" d="M881.7,344.7c9.7,2.6,17.6,0.5,24.4-6.3c0.1,4.5-2.4,8-7,10.1C893.4,351,887,349.7,881.7,344.7z"/>
	<path class="st0" d="M1084.1,556.4c0,15.4,0,30.8,0,46.2c0,6-1.5,6.9-7.2,4.5c-2.3-1-4.7-1.9-7-2.9c-6.6-2.9-10.3-7.9-10.5-15.1
		c-0.4-12.5-0.7-25-0.9-37.5c-0.3-13-0.7-26.1-0.9-39.1c-0.1-6.1,0.8-6.5,6.2-3.5c3.3,1.9,6.4,4.2,9.9,5.7c6.9,2.9,9.1,8.2,9,15.2
		c-0.1,8.9,0,17.8,0,26.6H1084.1z M1072.7,520.7l0.8-0.9c-2-1.5-4-2.9-6.2-4.1c-3.5-1.8-6.1,0-6.1,3.4c-0.1,7.5,0.6,15,0.9,22.5h2.1
		v-24.6L1072.7,520.7z"/>
	<path class="st0" d="M469.3,684.3c-3.6,0-7.2,0.1-10.9,0c-4.5-0.1-7-2.5-7.1-7.1c-0.1-4-0.1-8,0-11.9c0.1-4.6,2.7-7.1,7.1-7.2
		c7.4-0.2,14.8-0.2,22.2,0c4.7,0.1,7.2,2.9,7.3,7.7C488,684.9,489.1,684.7,469.3,684.3z M458.6,677.3l18.2-12.6h-18.2V677.3z"/>
	<path class="st0" d="M112.4,679.9c0-9.7,0-9.7,9.6-9.7c1.6,0,3.2,0.1,4.9,0c3.9-0.2,5.6,1.5,5.5,5.4c-0.2,16.9,1.9,14.6-12.8,14.7
		c-7.2,0-7.2,0-7.2-7.2L112.4,679.9z M120.2,673.5c3.5,3.1,6.5,5.8,9.5,8.4v-8.4H120.2z"/>
</g>
<g id="Text">
	<path class="st0" d="M1385.4,487.7l11,32.4l-49.2,90h-162l255.9-485.9L1697,610.1h-162l-47.9-85.5l9.7-36.9l-55.7-125L1385.4,487.7
		z M1322.6,449.5h239.7v102.4h-239.7V449.5z"/>
	<path class="st0" d="M1910.2,487.7l11,32.4l-49.2,90H1710l255.9-485.9l255.9,485.9h-162l-47.9-85.5l9.7-36.9l-55.7-125
		L1910.2,487.7z M1847.3,449.5H2087v102.4h-239.7L1847.3,449.5z"/>
	<path class="st0" d="M2406.4,156.6v453.5h-142.5V156.6H2406.4z M2355.9,156.6h99.1c44.5,0,80.6,6.7,108.5,20.1s48.4,31.7,61.6,55.1
		c13.2,23.3,19.8,50.1,19.8,80.3c0,29.8-6.6,56.5-19.8,80s-33.7,42-61.6,55.4c-27.9,13.4-64,20.1-108.5,20.1h-99.1V360.7h86.1
		c12.1,0,22-1.6,29.8-4.9c7.3-2.9,13.6-8,17.8-14.6c4.1-6.5,6.1-14,6.1-22.7c0-9.1-2.1-16.7-6.1-23s-10-11-17.8-14.2
		c-7.8-3.2-17.7-4.9-29.8-4.9h-86.2L2355.9,156.6z M2542.4,415.8L2672,610.1h-165.2l-110.1-194.4L2542.4,415.8z"/>
	<path class="st0" d="M2710.9,284.9c12.5-28.7,30.8-54.5,53.8-75.8c22.9-21.1,49.7-37.3,80.4-48.6s63.7-16.9,99.1-16.9
		c36.3,0,69.8,5.6,100.4,16.9c30.7,11.2,57.4,27.4,80.3,48.6c22.9,21.2,41,47,53.1,75.8c12.5,29.4,18.8,62.2,18.8,98.5
		s-6.2,69.4-18.5,99.5c-11.8,29.3-29.6,55.9-52.1,78.1c-22.5,22-49.1,39-80,50.9c-30.9,11.9-64.9,17.8-102,17.8
		c-37.1,0-71.1-5.9-102-17.8c-30.9-11.9-57.5-28.8-80-50.9c-22.6-22.2-40.3-48.7-52.1-78.1c-12.3-30-18.5-63.1-18.5-99.5
		C2691.6,347.1,2698,314.3,2710.9,284.9z M2854.7,441.7c8.2,16.8,19.9,29.9,35,39.2s33.3,13.9,54.4,13.9c21.1,0,39.3-4.6,54.4-13.9
		s26.8-22.3,35-39.2c8.2-16.8,12.3-36.3,12.3-58.3c0-22.4-3.9-42-11.7-58.6s-19.1-29.6-34-38.9c-14.9-9.3-33.6-13.9-56-13.9
		c-21.2,0-39.3,4.6-54.4,13.9c-15.2,9.3-27.3,22.8-35,38.9c-8.2,16.7-12.3,36.2-12.3,58.6C2842.4,405.4,2846.5,424.9,2854.7,441.7z"
		/>
	<path class="st0" d="M3692.4,156.6v476.2l-294.8-228v205.3h-136V134l294.7,228V156.6H3692.4z"/>
	<path class="st0" d="M1383.7,679.8v140h-42v-140H1383.7z M1372.1,679.8h62.6v37h-62.6V679.8z M1372.1,736.8h60.6v34h-60.6V736.8z"
		/>
	<path class="st0" d="M1502.7,679.8v140h-44v-140H1502.7z M1487.1,679.8h30.6c13.7,0,24.9,2.1,33.5,6.2c8.6,4.1,14.9,9.8,19,17
		c8.1,15.5,8.1,34,0,49.5c-4.1,7.3-10.4,13-19,17.1c-8.6,4.1-19.8,6.2-33.5,6.2h-30.6v-33h26.6c3.1,0.1,6.3-0.4,9.2-1.5
		c2.3-0.9,4.2-2.5,5.5-4.5c2.5-4.4,2.5-9.7,0-14.1c-1.3-2-3.3-3.5-5.5-4.4c-2.9-1.1-6.1-1.6-9.2-1.5h-26.6V679.8z M1544.7,759.8
		l40,60h-51l-34-60H1544.7z"/>
	<path class="st0" d="M1640.7,679.8v140h-42v-140H1640.7z M1629.1,679.8h70.6v35h-70.6V679.8z M1629.1,730.8h66.6v34h-66.6V730.8z
		 M1629.1,784.8h70.6v35h-70.6V784.8z"/>
	<path class="st0" d="M1770.7,679.8v140h-45v-140H1770.7z"/>
	<path class="st0" d="M1870.7,739.8h74.4c1.1,11.3,0.2,22.7-2.7,33.6c-2.7,10-7.4,19.3-13.9,27.4c-6.5,8-14.8,14.3-24.2,18.4
		c-9.7,4.4-20.9,6.6-33.6,6.6c-11,0.1-21.9-1.7-32.2-5.4c-9.4-3.4-18-8.6-25.3-15.4c-7.2-6.7-12.8-14.9-16.6-24
		c-4-9.9-6-20.5-5.9-31.2c-0.2-10.6,1.9-21.2,6.2-30.9c4-8.9,9.9-16.9,17.3-23.3c7.6-6.5,16.5-11.5,26-14.7
		c10.5-3.5,21.5-5.2,32.5-5.1c10.7,0,20.1,1.6,28.3,4.8c7.9,3,15.2,7.3,21.6,12.7c6.1,5.2,11.6,11.2,16.3,17.7l-41,18.4
		c-2.4-4.4-5.6-8.3-9.4-11.6c-3.9-3.3-9.1-5-15.8-5c-6.2-0.1-12.4,1.3-18,4.1c-5.5,2.7-10,7-13.1,12.3c-3.3,5.5-4.9,12.3-4.9,20.6
		c0,8.1,1.5,15.1,4.5,21c2.8,5.6,7.2,10.3,12.6,13.4c5.8,3.2,12.3,4.8,18.9,4.6c3.6,0,7.3-0.4,10.8-1.2c2.9-0.7,5.7-1.8,8.3-3.4
		c2.3-1.5,4.4-3.3,6.1-5.4c1.7-2.1,3.2-4.5,4.4-7h-31.6L1870.7,739.8z"/>
	<path class="st0" d="M2010.3,679.8v140h-44v-140H2010.3z M1975.7,727.8h112v39h-112L1975.7,727.8z M2104.3,679.8v140h-44v-140
		H2104.3z"/>
	<path class="st0" d="M2118.3,679.8h124v39h-40v101h-44v-101h-40V679.8z"/>
	<path class="st0" d="M2361.2,679.8v140h-45v-140H2361.2z"/>
	<path class="st0" d="M2522.2,679.8v147l-91-70.4v63.4h-42v-147l91,70.4v-63.4H2522.2z"/>
	<path class="st0" d="M2595.6,768c3.2,4.8,7.7,8.6,13,10.9c5.6,2.4,11.7,3.7,17.9,3.6c5.8,0.1,11.7-0.8,17.2-2.6
		c4.5-1.6,8.8-3.8,12.7-6.5c3.5-2.5,6.8-5.2,9.9-8.1v45.2c-5.6,3.8-11.6,7-17.9,9.5c-6.5,2.6-14.8,3.9-25.1,3.9
		c-11.3,0.1-22.5-1.6-33.2-5.2c-9.5-3.2-18.2-8.3-25.6-15c-7.1-6.5-12.7-14.5-16.4-23.4c-7.7-19.5-7.7-41.3,0-60.8
		c3.7-8.9,9.3-16.9,16.4-23.4c7.4-6.7,16.1-11.8,25.6-15c10.7-3.6,21.9-5.3,33.2-5.2c10.3,0,18.6,1.3,25.1,3.8
		c6.3,2.5,12.3,5.7,17.9,9.6v45.2c-3.1-3-6.4-5.7-9.9-8.2c-3.9-2.8-8.2-5-12.7-6.5c-5.6-1.8-11.4-2.6-17.2-2.5
		c-6.2-0.1-12.3,1.2-17.9,3.6c-5.3,2.3-9.8,6.1-13,10.9c-3.3,4.9-4.9,10.9-4.9,18.1C2590.7,757.1,2592.3,763.1,2595.6,768z"/>
</g>
</svg>
