<svg xmlns="http://www.w3.org/2000/svg" viewBox="0 0 3780.13 958.5"><g id="Image"><path d="M998.38,640.23c17.86.7,35.72,1.55,53.58,2,9.78.26,16.94,4.16,21.63,12.88a6.51,6.51,0,0,0,4.91,2.72c21.35-.61,42.7-1.28,64-2.35,11.28-.56,16.22,2.64,19.29,14.48a50.69,50.69,0,0,0,5.07,0c9.37-.89,16.14,3.3,20.84,11,1.53,2.52,3.13,3.43,6,3.32,6-.23,12,.14,17.94-.12,7.73-.33,14,2.7,16.9,9.52,4.48,10.58,9,21.44,11.18,32.64,6.4,32.58,7.65,65.43.9,98.2-2,9.47-5,18.64-14.43,24.22l3.75,2.18a9.58,9.58,0,0,1-2.23.81c-32.92,1.33-65.82,3.13-98.75,3.82-56,1.17-111.94,1.68-167.91,2.39q-40.5.51-81,.72-121.24.47-242.49.74-48.93.12-97.87-.18-65-.33-129.92-.89-57.34-.52-114.68-1.41-51.88-.87-103.76-2.31c-17.91-.53-35.79-1.82-53.69-2.79-1-.06-2.1-.28-3.15-.42l-.09-1.69c10.17-.6,20.33-1.3,30.51-1.79,10.49-.49,21-.81,31.48-1.15,10.32-.32,20.63-.68,31-.81,10.49-.14,21,0,31.46,0l1.14-2.1a20.17,20.17,0,0,1-2.06-.37c-38.15-10.51-63-36.18-80.13-70.53a78.62,78.62,0,0,1-4.94-11.45c-1.08-3.43-3-4.08-6.32-4.25-15.72-.8-31.57-.89-47.08-3.18-25.87-3.82-44-23.91-44.52-49.81-.52-24.76.7-49.58,1.55-74.35.09-2.54,2.58-5.28,4.54-7.38a12.26,12.26,0,0,1,6-3.53c9-1.9,11.29-7.86,12.92-16.24,5.68-29.14,20.32-53.51,41.8-73.93a13.81,13.81,0,0,0,4-7.71,1261.92,1261.92,0,0,1,22-130c6.46-28.69,24.19-47.15,52-55.79,29-9,58.3-17.41,88.53-21.31,26.2-3.38,52.49-6.32,78.82-8.39,29.93-2.36,59.94-3.55,90.63-5.29,1-4.23,2.32-8.88,3-13.63.19-1.3-1.18-3.22-2.36-4.29-4.14-3.78-8.58-7.24-12.78-11-7.38-6.53-6.25-13.4,2.84-17,23.91-9.36,47.8-18.79,71.84-27.82,4.24-1.6,5.06-3.67,5.17-7.81.32-11.89-.16-24.08,2.36-35.56,2-9.27,7.68-17.83,12.26-26.42,2.35-4.39,9.24-5.56,15.86-3.69,10.56,3,15.32,13.58,9.64,22.88-6.72,11-10.67,22.42-7.9,35.65,3.61-.68,6.14-1.77,7-6.45,2.13-11.27,8.72-14.91,19.85-11.72,4.65,1.33,9.22,3,14,4.53.83-3.07,1.4-6.06,2.44-8.88,2.92-8,9.22-12,17.1-9.06,7.47,2.76,14.22,7.48,21.2,11.48,1.48.85,2.59,2.34,4.57,4.19.87-3.66,1.41-6.41,2.18-9.09,3.18-11.2,11.17-15.94,22-11.52,7.38,3,13.83,8.23,20.81,12.26,2,1.14,4.43,2.4,6.53,2.21,24.17-2.19,48.3-4.7,72.45-7a98,98,0,0,1,38.63,4.09,20,20,0,0,0,10.36-.13c15.89-4.17,32.23-5,47.8-1.13,8.11,2,15.39,1.4,23.24,1.67,0-12.9.38-25.36-.1-37.78-.59-15.73,2.13-30.6,9.39-44.58,3.09-5.94,7.15-11.5,9.35-17.74,4.48-12.76,22.24-13.18,30.93-6.3,8.87,7,10.53,16.2,5.53,26.27-4.87,9.83-10.66,19.62-13.12,30.11-2.26,9.63-.64,20.17-.7,30.31,0,5.78,0,11.55,0,17.37,7.29,1,14,1.36,20.44,2.94,27.18,6.69,51,20.39,73,37.14,12.19,9.28,22.9,20.49,34.48,30.6,12.27,10.71,18.39,24.35,19.88,40.28,2,21.07,4.37,42.12,5.64,63.23,3,49.32,5.51,98.67,8,148,1.35,27.29,2.15,54.61,3.13,81.93.38,10.49-.27,21.1,1.07,31.46,2,15.2-15.57,28.84-30.61,24.37-3.47-1-7-1.74-10.46-2.87a80.86,80.86,0,0,0-29.86-3.73c-15.14.75-30.34.19-45.51.19Zm-352.67,3.56c1.73,12.9,3.47,25.8,5.17,38.43,2.78-11.11,5.67-22.69,8.72-34.91L645.55,644c-2.25-.66-4.48-1.41-6.76-2-45.34-10.91-91.36-16.89-137.89-19.69,27-.12,54-.45,80.85,1.4s53.85,5.87,81.33,9l4.3-16.24c-21.11-2.44-41.73-5-62.4-7.17-46.93-4.9-94-5.08-141.11-3.72s-94.12,2.3-141.17,3.77c-27.32.86-54.64,2-81.92,3.75-32,2-64,4.11-95.84,7.35-16.65,1.7-33,5.85-49.51,9.15-1.62.32-4,2.34-4.11,3.75-.5,5.18-.2,10.44-.2,16.25,2.29-.39,4-.63,5.75-1,31.57-6.61,63.42-11.52,95.61-13.47,33.61-2,67.26-3.83,100.91-4.51,48-1,96-1.19,144-1,30.59.1,61.22.76,91.76,2.43,26.18,1.44,52.27,4.57,78.38,7.17C620.27,640.48,633,642.24,645.71,643.79ZM798.23,708c-.44-26.9-7.78-50.44-25.75-69.89-27-29.24-69-28.23-94.77,2.07-31,36.36-31.86,94.2-2.06,131.66,25.12,31.6,65.59,34.73,94.55,6.64C790.15,759.1,797.72,734.39,798.23,708ZM670,440.38c-28.27-11.3-102.17-1.34-145.41,19.86C469,487.48,429.24,530.75,399.15,585.07H443c-7.62-8.51-10.17-15.5-6.63-22.93,3-6.39,7-12.83,12-17.72,10.08-9.82,23.07-14.87,36.59-18,36.57-8.54,73.61-8.6,110.71-4.9,6.41.64,9.95-1,13.86-6C650.07,463,718.89,450.09,775.85,484c1.42.85,2.94,1.53,4.42,2.3a174.17,174.17,0,0,0-63.87-32.58c-27.2-7.43-54.66-7.84-82.36-3.33-32.44,5.3-64.17,13-94.13,27-7.1,3.3-14.17,6.66-21.25,10a172.06,172.06,0,0,1,42.67-27.75C595.56,443.72,631.67,438.22,670,440.38ZM194.83,379.46c14.07-10.83,14.89-11.42,27.52-13.71,23.67-4.28,47.29-9.06,71.1-12.35,30.29-4.19,60.75-7.15,91.15-10.53,6.64-.74,11.87,1.69,13.4,6.74a25.85,25.85,0,0,1,.47,10.67c-4.55,33.71-9,67.45-14.07,101.07-4.51,29.7-9.71,59.29-14.89,88.87-2,11.4-10.28,18.39-21.76,19.24-9.39.69-18.78,1.16-28.17,1.76-26.38,1.66-52.75,3.38-79.13,5-20.6,1.28-41.2,2.61-61.82,3.65-9.74.49-15.11-5.09-15.11-14.89V551.48l-.88-.07c-1.17,13.53-2.33,27.05-3.54,41,2,0,3.27.06,4.5,0,16.26-.91,32.52-1.91,48.78-2.75q75.94-3.95,151.88-7.79c15.29-.77,22.68-6.74,26.7-21.37A1091.18,1091.18,0,0,0,422,403c2.24-18.51,3.46-37.14,5.42-55.68.93-8.7-5.37-17.88-15.51-17.9a689.65,689.65,0,0,0-81.29,4.69c-34.94,4-69.52,9.83-103.31,19.75C213.68,357.81,203.14,366,194.83,379.46ZM619,841.92c-22.4-14.87-36.82-34.49-48.64-56.41-.85-1.58-4.14-2.63-6.29-2.61-16.83.22-33.65.84-50.48,1.17-30.06.59-60.13,1.15-90.19,1.47-4.39,0-6.8,1.8-9.19,5.18-12.94,18.3-28.88,33.38-48.87,43.79-6.31,3.28-13,5.84-20.4,9.13ZM970.55,554.14c0-2,.05-3.84,0-5.63-.6-21.17-1.3-42.33-1.83-63.5q-1.63-64.87-3.14-129.76c-.51-20.81-.9-41.63-1.64-62.43-.07-2-1.87-5.15-3.52-5.67-13.5-4.21-27.34-3.76-41.49-2.63,0,7.93-.4,15.34.13,22.69.4,5.49-1.9,9.57-7.3,10.37-1.52.22-3.06.34-4.38.48,4,5.36,7.84,10.37,11.4,15.61.89,1.31,1.52,3.75.89,5-3.48,6.78-5.63,14.51-13,18.79-1.4.82-2.53,3.35-2.53,5.09,0,11.41.26,22.82.53,34.22q1.57,66.76,3.17,133.53c.18,8,0,16.08,0,24.28C929.47,548.69,949.59,549,970.55,554.14ZM872.26,628.9c-2.23,0-4,.16-5.82,0-4.61-.5-6.12,1.35-5.48,6,.57,4.1.38,8.31.53,12.48.77,22.39,3.6,44.77-.18,67.19-1.37,8.12-1.6,16.44-2.42,25.45h37.59a25.59,25.59,0,0,0,.83,4.42c2.14,5.33.89,8.8-4.87,10.69-3,1-5.67,2.9-9.7,5,16.28-4,18.1-6.42,16-19-.56-3.32-2-4.31-5.32-4.43-9.37-.31-18.72-1.08-28.63-1.71,2.36-14,4.65-27.65,7-41.51l63.63,10.37c0,6.42-.1,12.2,0,18,.12,5.46-.54,11,1.57,16.32,4.61-25.31-1.88-50.38-1.32-76,17.69,18.2,19.86,45.57,6.16,76.74,6.92.89,13.68,1.78,20.45,2.63,5.94.74,13-.19,12.44,9.85,15.8-18,21.68-62-3.12-90.35,4.71,1.74,11.09,3,13.15,6.62,15.67,27.93,15.46,56.34-.46,84.16-3.82,6.67-8.18,13.88-17.54,14.4-.26,0-.47.82-.88,1.62,1.43.24,2.61.53,3.8.63,23.81,2,47.64,3.76,71.43,5.9,12.67,1.14,21.82-4.32,28.28-14.52,11.25-17.75,12.22-36.83,5.38-56.28-4-11.48-10.86-21.14-23.43-24.49-22.87-6.1-45.86-11.75-68.8-17.61-15.88-4.06-31.76-8.17-48.06-12.36.4-2.75.72-5,1.11-7.75l-2.64-.48v56.36l-60.67-10.46ZM593.67,318.6a20.85,20.85,0,0,0,2.82.89c17,2.28,34,4.62,51.11,6.75,9.29,1.17,18.62,2.59,27.95,2.76,9,.17,18-1.14,27.06-1.78,16.06-1.14,32.12-2.15,48.16-3.5,2.07-.18,5.42-1.71,5.78-3.2,4.71-19.45,9-39,13.55-59.26-2.84.13-4.6.16-6.35.29q-47.36,3.65-94.69,7.32c-19.84,1.53-39.69,2.95-59.51,4.68-1.87.16-4.76,1.79-5.17,3.29C600.59,290.56,597.25,304.4,593.67,318.6ZM443.82,357.43a1335.4,1335.4,0,0,1,233.57,20.28C636.22,365.63,594.3,357.06,552,350c21.58-.28,43.1-.69,64.61-.17q32,.78,64,3.1c21.24,1.53,42.43,3.93,63.64,5.94-101.2-24.15-203.79-36.37-308.91-37.36C444.34,332.75,446.17,344.4,443.82,357.43ZM1137.46,674.2v53.49l-1.78.1c-1.16-9.94-2.33-19.88-3.44-29.38h-30.35v29a4.89,4.89,0,0,1-1.83-3.4c-.79-7.19-1.37-14.41-2.39-21.56-.2-1.4-2-3.62-3.08-3.65-4.56-.1-9.14.48-14.06.84,6.46,17.62,6.09,34.68,1,51.61.73.39,1,.7,1.36.7,19.38.11,38.76.33,58.14.19,4.61,0,6.86-3.06,7-7.95.53-23,1.24-45.93,1.91-68.9.12-4.27-2.32-7.13-6.42-7q-40.38,1.46-80.76,3.08c-1.49.06-3,1-4.43,1.45l0,1.5c4.72.55,6.52,7.54,12.68,5.19.64,9,5.06,13.21,14,13.1,3.07,0,6.16-.41,9.21-.18s4.15-1.05,4.76-3.79c1-4.58,2.36-9.08,3.57-13.62l1.11.24c-.39,5.34-.78,10.68-1.15,15.77,9.82,0,19.18.09,28.54-.14,1,0,2.34-1.86,2.74-3.1C1135.14,683.42,1136.2,678.92,1137.46,674.2Zm-994,64.57-.05,2.37c15.14,0,30.28-.14,45.42,0,36.77.42,73.53,1,110.3,1.51q30.69.42,61.39.82,93.48,1.15,187,2.28c22.28.27,44.61-.37,66.83,1,18.09,1.11,32.18-11.58,33.37-33.94C644,715.51,640.5,718,637,720.59a52.54,52.54,0,0,1-30.74,10.79q-70.34,1.41-140.69,2.67Q408,735.1,350.42,736q-86.67,1.4-173.34,2.73C165.88,738.92,154.68,738.77,143.47,738.77Zm768.69-483c0-15.39.08-30.78,0-46.17,0-6.81-3.25-10.06-9.93-10.22s-13.4-.18-20.09,0-10,3.63-10,10.23q-.09,46.17,0,92.33c0,6.8,3.55,10.11,10.53,10.17,5.79.05,11.58,0,17.38,0,9.39,0,12.15-2.76,12.16-12.34Q912.21,277.73,912.16,255.73ZM548,526.62c-7.53.53-20.94,1-34.22,2.5-17.82,2-35.44,5.12-51.32,14.41-8.56,5-15.31,11.48-19,20.84a11.32,11.32,0,0,0,8.93,15.42,48.62,48.62,0,0,0,7,.35c33.69,0,67.38-.34,101.06.16a358.22,358.22,0,0,1,44.25,3.52c20.81,2.91,37.47-2.76,49.56-20.36,8.33-12.11,3.79-23.76-10.56-26.93C614.18,530,584.15,527.18,548,526.62Zm435,71.64c-2.32-101.35-4.62-202.26-7-304.29l105.06,76.29,1-1.09a18.43,18.43,0,0,1-2.74-1.58c-32.15-26.47-64.16-53.13-96.54-79.32-5.56-4.5-7.44-9.2-7.45-16,0-18.47-.61-37-1.23-55.41-.3-9.05,3.54-12.38,12.35-9.83,3.74,1.08,7.38,2.49,11.06,3.76A48.66,48.66,0,0,0,974.29,199c-10.51-2.31-15.32,1.42-15.22,12.08q.3,32.07,1.06,64.12c0,1.48,1.44,3.78,2.74,4.25,6.84,2.5,9.12,7.26,9.14,14.29,0,14.84.66,29.68,1,44.53q1.61,64.08,3.19,128.16c.67,28.24,1.21,56.49,1.85,84.73.24,10.58-.74,11.77-11.1,12.73-.3,0-.57.4-.36.24v34.13ZM804.51,227.79c-7.07,2.86-10,8-10.76,14.81-2.48,23.58-5.07,47.15-7.54,70.72-.62,5.9-1,11.82-1.45,17.73l1.47.18c.31-1.47.74-2.93.92-4.42,1.7-14.19,3.42-28.38,5-42.58,1.59-14,2.93-28.08,4.61-42.1,1.23-10.28,8.85-14.76,17.82-9.85,13.32,7.28,26.22,15.35,39.31,23.07,3.62,2.14,7.26,4.23,10.89,6.34l1.08-1.4a31.07,31.07,0,0,0-4.27-3.79c-9.86-6.05-19.41-12.76-29.8-17.72-12-5.73-18.92-14.12-21.87-27.17-2.51-11.1-9.09-15.07-20.45-14.32-25.65,1.68-51.29,3.64-76.92,5.52-28.71,2.11-57.43,4-86.1,6.53-8.71.77-17.71,2.21-25.8,5.34-27.15,10.54-53.94,22-80.88,33.06-7.29,3-14.6,6-21.91,8.94a5.55,5.55,0,0,0,3.8-.17c20.6-7.35,41.15-14.82,61.79-22,10.39-3.64,20.72-8.75,31.44-9.91,48-5.17,96.3-8.36,144.29-13.9C763.65,207.83,783.61,217.26,804.51,227.79ZM583.65,591.42l-.12,1.12q20.34,3,40.68,6c13.59,2,27.23,3.86,40.76,6.26,4.82.86,6.72-.38,8.58-4.94,10.35-25.33,23.47-49,44-67.75,25.45-23.33,57.45-23.36,83.19-.24,17.82,16,27,36.86,33.13,59.31,10.23,37.5,11.78,76.09,12.82,114.6.48,17.68-1.25,35.42-2.17,53.12-.2,3.68.64,5.06,4.77,3.6.42-10.29,1.29-20.58,1.17-30.85-.25-21.52-.6-43.06-1.7-64.55a368.48,368.48,0,0,0-12.84-81.31c-6.12-21.77-14.15-42.74-29.77-59.63-15.23-16.46-33.74-25.16-56.89-21.3-15.57,2.6-27.67,11.14-38.66,21.7-18.47,17.76-32.44,38.81-44.24,61.39-1.43,2.74-3,3.94-6.18,3.89-18.46-.27-36.93-.32-55.39-.42C597.72,591.39,590.68,591.42,583.65,591.42Zm235.21,214c1.78-3,4.69-7.17,6.87-11.69,28.4-59,26.9-117.47-4.46-174.77-12.62-23.06-31-40.86-55.52-51.49-1.72-.74-4.06-1.67-5.53-1.08a41.19,41.19,0,0,0-19.87,16.32,19.42,19.42,0,0,0,3,1c30.41,4.39,53.3,20.36,68.19,46.74,22.56,40,28.51,83.2,20.49,128.06C829.07,774.9,823.08,790.72,818.86,805.46ZM938.32,276.19l2.07-.09a37,37,0,0,0,.33-3.92q-.27-30.42-.61-60.85c-.14-13.59.43-27.22-.52-40.75-1.65-23.53-1.14-46.38,13.55-66.48a19.64,19.64,0,0,0,1.26-2.41c3-5.7,1.16-11-4.92-14.12S938.7,86,935.55,91.84c-3.07,5.74-6.22,11.44-9.28,17.19a74,74,0,0,0-8.64,37.1c.19,8.51.5,17,.59,25.52.38,32.6.67,65.2,1,97.81,0,2.29.41,4.57.65,7.09l10.31-.64c0-7.3,0-14.15,0-21,.21-36.59.37-73.18.72-109.77.09-8.61,1.18-17.13,5.38-24.89-1.06,7.58-3.15,15.05-3,22.46,1,38.35,2.52,76.69,3.91,115C937.51,263.89,938,270,938.32,276.19Zm45.15,567.69h92.73c-3.18-5.83-7.07-11.76-9.77-18.19-2.78-6.62-4.62-13.68-6.43-20.66-.74-2.85-1.71-3.8-4.71-3.65-8,.42-15.92.39-23.88.65-9.89.32-19.78.74-29.68,1.12C998.91,818,994.65,831.65,983.47,843.88ZM596.37,276.43c-1.93.39-3,.55-4,.8-27,6.59-54,13.52-81.14,19.55-7.77,1.73-11.91,4.89-11.89,13l86.54,8ZM1191,820.34l-1.13-.47a13.85,13.85,0,0,1-1.16,1.74c-1.93,2.13-4.46,6.26-5.75,5.9a12.54,12.54,0,0,1-7.23-6,87,87,0,0,1-6-17.38c-5.62-24-6.86-48.37-5.24-72.83.64-9.64,3-19.24,5.39-28.65.69-2.73,4.14-4.76,6.32-7.12,2.36,2.22,5.51,4,6.92,6.74,2.52,4.85,4,10.24,5.91,15.4-1.68-11.11-4.19-22-10.67-31.38-4.14-6-9.38-6.15-12.65.33a69.69,69.69,0,0,0-6.5,19.39c-6.17,36-4,71.82,4.69,107.18a77.21,77.21,0,0,0,9,20.75c3.77,6.3,9,5.88,12.57-.46C1187.82,829.37,1189.18,824.73,1191,820.34ZM370.47,697.17l0,1.17a24.55,24.55,0,0,0,3.63.87A657.13,657.13,0,0,0,481,700c14.33-1.09,23.42-10.85,24.11-25.24.17-3.62.12-7.25,0-10.87-.33-14.27-9.55-24.68-23.73-25.42a781.76,781.76,0,0,0-110.67,2c-2.68.24-5.35.54-8,.81,2.62,1.11,5.12,1.07,7.62,1.12,36.73.74,73.47,1.4,110.19,2.33,10.33.26,16.39,6.06,17.7,16.31a66.24,66.24,0,0,1,.4,14.07c-1,11.79-6.59,17.62-18.6,18.72-16.21,1.48-32.47,2.79-48.73,3.23C411,697.59,390.73,697.17,370.47,697.17ZM350,356.28a802.44,802.44,0,0,0-30.12,205.49A1880.29,1880.29,0,0,0,350,356.28Zm841.3,416.27c-1.44-12.27-2.42-24.9-4.59-37.32-1.22-7-4-13.84-6.88-20.36-1.84-4.08-5.51-3.77-6.93.54-1.9,5.77-2.77,11.88-4,17.87a4,4,0,0,0,.69,2.49c9,15.32,7.54,31.8,5.19,48.32-.28,2-2.74,4-2.36,5.58a127.75,127.75,0,0,0,5.69,17.44,6.83,6.83,0,0,0,4.67,3.65c1.06.13,2.71-2.48,3.64-4.12a13.79,13.79,0,0,0,1.64-5.13C1189.27,792,1190.25,782.51,1191.34,772.55ZM287.69,362.79l-1.39-.19c-12.67,24.7-33.62,175.46-26.89,203.3ZM804,735.59c-5.11,32-21,55.14-50.59,66.73-29.25,11.46-56.63,5.9-81.58-12.92,20.85,26.31,59.39,35.14,88.79,21.33C792.09,796,807.24,761.55,804,735.59Zm429.11,84.66-1.2-.4a11,11,0,0,1-1.31,2.88c-1.56,1.8-3.29,4.71-5,4.76s-4.36-2.37-5.4-4.34a55.47,55.47,0,0,1-4.66-12.1c-5.77-22.25-7.25-44.95-5.89-67.8a195.94,195.94,0,0,1,3.86-26.22c.72-3.63,1.73-9.24,6.51-8.49,2.8.45,5,5.24,7.27,8.25.82,1.09.94,2.7,1.45,4.05.43,1.13,1,2.21,1.43,3.31l1.91-.82c-3.64-8.14-6.79-16.55-11.09-24.32-2.66-4.81-7-4.46-9.73.39a47.11,47.11,0,0,0-5.25,13.54c-6.28,31.89-4.88,63.76,1.88,95.36a104.88,104.88,0,0,0,8.93,24.25c3.19,6.45,8.25,6,11.63-.38C1230.41,828.42,1231.58,824.24,1233.12,820.25Zm-.84-39c-.73-10.13-.79-18-2-25.64a207.8,207.8,0,0,0-5.69-25.36c-.72-2.52-3.67-4.42-5.6-6.6-1.51,2.32-3.84,4.47-4.37,7-1.19,5.64-2.28,10.47,1.2,17.09,6.45,12.25,6.05,26.57,3.12,40.32-.39,1.82-3.45,3.69-3.11,4.94a123.2,123.2,0,0,0,6.32,17.68c1.2,2.68,3.76,1.83,5.15-.36a14.17,14.17,0,0,0,2.16-5.5C1230.64,796.24,1231.55,787.62,1232.28,781.26ZM800.63,515c-16.1-23-44.63-33.79-69.87-26.87-26.71,7.33-49.73,33-52,58.74,1-1.6,1.66-2.6,2.25-3.64,8.32-14.72,19-27.26,33.39-36.43,17.17-11,35.6-16,55.83-10.7C782.25,499.24,792,506.26,800.63,515ZM759.3,226.18c-.09-.41-.19-.82-.29-1.23-10.81.69-21.64,1.28-32.44,2.08-30.87,2.31-61.75,4.54-92.59,7.15-12.2,1-24.74,1.51-36.38,4.84-27.63,7.9-54.81,17.36-82.18,26.17-12.06,3.88-17.63,11.87-17.15,25.87a80,80,0,0,0,2.48-8.17c1.69-9.15,7.28-13.45,16.2-15.78,18.71-4.91,37.13-10.9,55.7-16.37,11.61-3.41,23.08-8.3,35-9.7,33.24-3.93,66.66-6.31,100-9.46C724.85,230,742.07,228,759.3,226.18Zm234.81,373.3-.36,1.32c13.31,4.42,26.59,9,40,13.22q26.31,8.41,52.76,16.45c7.48,2.27,16-2.31,16.77-9.26.66-5.88.14-11.9.14-17.86a3.15,3.15,0,0,0-1.76,1.88c-4,11.63-9.35,15.12-21.29,12.8-16.49-3.2-32.89-6.88-49.31-10.43C1018.7,605,1006.41,602.19,994.11,599.48Zm-44.2,42.4c4.26-12.27,2.9-23.22-4.33-33.31a45.21,45.21,0,0,1-8.78-24.07c-.58-9.46-1.58-18.89-2.39-28.33-7,.74-7,.74-7,6.65s-.26,11.62.39,17.34c.94,8.2.86,17.17,4.35,24.27,5.37,10.91,10.9,21.17,7.81,33.85Zm76.57-241.11H1028c0,6.14-.29,12.31.07,18.44a23.84,23.84,0,0,0,11.38,19.38c9.89,6.32,20,12.34,30.07,18.35,5.76,3.43,10.17,1,10.08-5.51-.27-18.63-.74-37.25-1.09-55.88a17.56,17.56,0,0,0-7.81-14.69c-10.71-7.71-21.25-15.66-32.11-23.15-2.19-1.51-6.29-2.76-8-1.71-2.15,1.3-3.78,5.12-3.87,7.91C1026.25,376.19,1026.48,388.49,1026.48,400.77ZM892.92,354.54c9.65-.05,18.31-7.88,18.23-16.49s-8.71-16.26-18.48-16.15-17.74,7.42-17.86,16.14S883.2,354.58,892.92,354.54Zm70.4,291.93C969,630,966.23,615,958.48,601a43.7,43.7,0,0,1-5.5-21.1c-.08-5.61-.54-11.23-.2-16.8.33-5.38-2.07-7-7.6-6.65,0,11.72-.22,23.25.15,34.76a20.75,20.75,0,0,0,3,9.71c8,13.18,10,26.85,4,41.75ZM902.7,738.61c.39,3,.82,5.11.91,7.25.2,5,2.37,6.7,7.72,7,17.85,1,35.65,2.89,53.47,4.36,2.22.18,5.28,2.1,6-2.1.8-4.73-1.33-8.33-5.14-8.81q-11.56-1.44-23.13-2.86C929.48,741.85,916.43,740.28,902.7,738.61Zm151.28-204h1.88c0,17.92-.14,35.85.07,53.77.09,8.27,4.11,14.5,11.62,18.2,2.92,1.44,6,2.6,9,3.83,6.82,2.79,11.41-.49,11.21-7.91q-1-38-2-76c-.14-5.52-2.44-9.76-7.16-12.59s-9.26-5.73-14.14-8.07c-2.19-1.05-5.82-1.93-7.31-.84-1.86,1.34-2.89,4.76-3,7.35C1053.73,519.8,1054,527.23,1054,534.65ZM230.36,376.42c-10.72,19.49-34.81,173.12-29.66,188.51C210.55,502.31,220.5,439.05,230.36,376.42ZM563.73,216.51l2.51.69c.68-2,2.1-4,1.93-5.89-1.28-14.41,1.74-27.66,9.91-39.67.11-.15.16-.33.26-.48,2.79-4.38-.17-6.95-3.3-8.81-3.35-2-6.41-2-9.18,2.06-11.76,17.11-13.74,36-10.91,56.09,4.69-.45,7.32-2.58,6.8-7.93-.33-3.4-.06-6.87-.06-10.31,0-2.53-.15-5.08.08-7.6s.86-4.88,1.32-7.31l.64.19ZM867.19,312.1c-.32-6.28-2.81-9-8.88-7.42-4.7,1.23-9.83,1.44-14.14,3.45-17,7.93-34,16.06-50.63,24.8-8.75,4.6-13.48,12.67-14.92,23.18l7.49.51c1.54-11.5,9.26-17.22,18.87-21.37,5-2.15,9.69-4.88,14.64-7.09C835,321.28,849,310.52,867.19,312.1Zm-97.5,72c0,5.44,0,10.88,0,16.31,0,3.53,1.66,5.4,5.24,5.44,2,0,4-.1,6,0,3.7.2,5.63-2,5.69-5.16.23-10.87.33-21.75,0-32.61-.13-4.49-3.54-5.9-10.6-5.47-4,.24-6.51,1.7-6.36,6.26C769.81,373.91,769.69,379,769.69,384.06Zm317-83.77c-1.33-5.19-2.13-10.58-4.13-15.49-1.93-4.74-4.23-9.91-7.87-13.28-16.74-15.54-34.49-29.92-54.41-41.25-10.42-5.93-21.4-10.87-32.12-16.26l-.68,1.24C1026.05,237.1,1063.27,260.52,1086.68,300.29ZM469.47,653.87c-4,0-8-.14-11.94,0a10.86,10.86,0,0,0-10.6,10.33,120.77,120.77,0,0,0,0,14.11c.34,5.4,4.3,9.82,9.63,10.07,8.66.39,17.37.45,26,0,5.71-.32,9.31-4.91,9.44-10.69.11-4.34.12-8.69,0-13a10.71,10.71,0,0,0-10.62-10.79C477.45,653.71,473.46,653.86,469.47,653.87Zm646.16,107.6a30.12,30.12,0,0,0-3.34-.32,33.59,33.59,0,0,0-3.51.48c.91,24.09,4.09,47.35,11.83,70,1.78,5.23,4.49,6,9.27,4.61C1119.59,812.26,1116.84,787.22,1115.63,761.47ZM840.35,572.87a40.86,40.86,0,0,1,1.16,5.2c.43,6.19,3.62,8.56,9.86,9.48,15,2.2,29.84,5.41,44.75,8.14,7.3,1.34,14.62,2.5,21.93,3.74.08-.34.16-.68.23-1Zm-706.29-13.5c9.88,1.08,11.27,2.89,9.78,11.43-.75,4.27-1.88,8.46-2.6,12.73-1.47,8.8-6.56,13.72-15.35,15.09a30.69,30.69,0,0,0-7.28,2c-1.17.49-1.93,1.94-2.88,3a156.76,156.76,0,0,0,26.5-2.74c1.13-.2,2.6-2.3,2.75-3.66,1.62-13.81,3-27.65,4.42-41.48.44-4.31.78-8.64,1.16-13l-1.4-.58Zm12.18,141,0-1.54c-14.75-.42-29.5-.87-44.25-1.24-6.51-.16-8.75-1.85-9-8.17-.26-8.13,0-16.28,0-24.42,0-5.42,2.64-8.34,8-9.13,14.77-2.19,29.52-4.44,43.12-6.5a156.08,156.08,0,0,0-47.61,3.73c-4.84,1.17-7.4,5.3-7.54,10.21-.25,9.38-.36,18.78,0,28.15a10.32,10.32,0,0,0,10.75,10C115.23,701.27,130.73,700.73,146.24,700.33ZM819.57,206.28c11.38-3.26,22-8.17,32.85-8.9,11.27-.76,22-3.17,32.73-6.07-23.43-4.63-46-2.54-67.76,9.39C818.13,202.59,818.9,204.55,819.57,206.28Zm-34.81,62.34-.72-.18c-.39,1.32-.85,2.62-1.16,3.95q-6.93,30.14-13.82,60.27c-2.3,10.09-2.29,10-12.9,10.16-11.23.2-22.45.67-33.67,1,0,.38,0,.75,0,1.13l46,7.75C774,324.22,779.38,296.42,784.76,268.62Zm109.39,92.64-2.32-.17a28,28,0,0,0-.62,4.24c0,4.7.17,9.4.22,14.1.42,35.3,1.23,70.61,1.08,105.91-.1,22.93,2.66,45.89.21,68.91,1.06-3.14,2.31-6.38,2.3-9.62Q894.72,452.94,894.15,361.26ZM796.65,323l1.34,0c1-7.48,2-15,3-22.44,2-15.62,3.92-31.25,6.06-46.85.74-5.4,3.6-6.77,8.4-4.38,3.73,1.85,7.34,3.92,11,5.84q19.11,10,38.23,20l1.29-1.38c-1.26-1.49-2.21-3.56-3.81-4.4q-22.35-11.75-44.88-23.11c-7.51-3.79-13.13-.37-13.94,8.15-.84,8.82-1.87,17.62-2.73,26.44C799.28,294.94,798,309,796.65,323Zm-660,357.46c0-1.45,0-2.9,0-4.35-.07-7.59-2.54-10.12-10-10.19-3.63,0-7.26-.13-10.88,0-4.7.2-7.44,2.92-7.8,7.47a93.26,93.26,0,0,0-.05,13.58c.31,4.88,3.38,7.54,8.16,7.82a113.31,113.31,0,0,0,12.5,0c4.93-.24,7.88-3.43,8.1-8.39C136.73,684.47,136.66,682.47,136.65,680.48Zm744-298.63-62.1-23.09L818.1,360l66.38,27c0-9.07.11-17-.11-24.88,0-1.19-1.6-2.33-2.46-3.49l-1.25.62Zm322.94,314h-15.15q3.66,16.71,7,31.88C1198.07,717.43,1200.82,706.71,1203.6,695.86Zm-551-498.69c.31-.95.61-1.9.92-2.85-4.75-2.4-9.32-5.27-14.28-7.11-8.68-3.23-13.86,1.58-12.75,10.46,2.21-1,4.67-3.12,7-3C639.91,195,646.26,196.27,652.62,197.17Zm20.47-4.41c2.28-1,4.48-2.78,6.63-2.72,6.78.18,13.55,1.05,20.32,1.66.21-.61.43-1.21.64-1.81-4.16-2.27-8.17-4.89-12.51-6.72C678.43,179,673.82,182.21,673.09,192.76ZM872.65,509.52l-1.34.15c-.37,6.06-.3,12.19-1.2,18.18-1.49,9.95,2.75,10.61,9.52,12.64,4.2,1.25,7.21-1.12,7.13-5.57-.08-5.21-.72-10.42-1.12-15.62h-.83c-.59,5.76-1.19,11.51-1.78,17.17-6.56-.24-9.41-2.55-9.26-8.69S873.07,515.61,872.65,509.52ZM890.51,802.2c2.66,11.33,10.6,18.84,18.54,18.67,7.19-.17,14.15-6.79,15.94-15.18C913,820.77,898.12,816.26,890.51,802.2Zm-563.9-17.55c.94-1.24,3.51-3.19,4-5.58.79-3.78-4.68-8.72-8.83-8.56-3.42.12-5.9,1.72-6,5.55C315.61,780.1,320.36,784.6,326.61,784.65ZM135.92,585.92c1.15-5.9,2.42-12.4,3.82-19.56-3.49,0-6.17-.56-8.43.17-2,.66-3.77,2.58-5.13,4.33-.44.57.47,2.56,1.2,3.59C130.08,578.29,133,582,135.92,585.92Zm159.6,193.21c.12-4-3.49-8.57-6.33-7.39a12.72,12.72,0,0,0-6.35,6.74c-1.17,3.29,2.86,7.28,6.32,7.09C293.3,785.35,294.93,782.5,295.52,779.13ZM957,802.44c.8,11.17,7.28,19.35,14.6,19.68,5.93.27,12.35-6.75,13.61-14.87C974.35,823.5,962.52,817.19,957,802.44ZM808.33,832.87l-11.9,8.94h20ZM258.7,761.62l5.73,6,5.8-6.24c-1.67-1.34-3.28-3.64-5-3.75S261.67,759.69,258.7,761.62Zm332-555.77,16.53-5.18C598.49,196,591.75,196.74,590.7,205.85ZM118.33,596l14-5.76C118.26,588.85,120.56,587.43,118.33,596ZM783.75,447.17h.45V414h-.45Z"/><path d="M764,656.24a15.35,15.35,0,0,1,0-3.67c.63-2.08,1.52-4.08,2.3-6.11,1.93,1.59,4.58,2.81,5.64,4.85,2.85,5.49,1.28,9.2-3.85,10.15,1,1.41,1.92,2.69,2.74,4a7.86,7.86,0,0,1,1.34,4.51c-1.53-1.89-3-3.83-4.58-5.65-17.75-20.22-43.86-18.27-58.53,4.33-14.45,22.28-13,54.18,3.44,74.91,14.6,18.42,39.2,18.21,55.31-.49a29.43,29.43,0,0,1,5-5.19,18.49,18.49,0,0,1-1.17,3c-17.22,28.9-52.58,30.2-72.14,2.66-18.61-26.2-15.64-65.91,6.5-86.87,16.53-15.65,37.84-16.47,55.48-2.15C762.21,655,762.93,655.48,764,656.24Z"/><path d="M674.11,709.54c6.25,0,10.83,4,10.64,9.17-.19,5-4.72,8.8-10.54,8.83-6.19,0-10.52-3.81-10.44-9.26C663.84,713.07,668.06,709.5,674.11,709.54Z"/><path d="M691.16,764.78c-5,0-7.9-2.5-7.91-6.76,0-5.35,4.78-9.34,11.09-9.24,4.73.08,8,3,7.84,7C702,760.66,697,764.77,691.16,764.78Z"/><path d="M677,665.31c6.48,0,11.37,3.92,11.28,9.07s-3.84,6.09-7.79,6.3c-6,.31-11.5-4.06-11.68-8.95C668.64,667.65,671.64,665.31,677,665.31Z"/><path d="M734.34,774.66c0,5.15-4.08,9.94-8.73,10.12-4,.16-6.69-2.87-6.68-7.51,0-5.3,4.08-9.67,8.93-9.68S733.9,770.73,734.34,774.66Z"/><path d="M699.37,634.9c5.48.11,10.88,5.11,10.88,10.17,0,4-2.5,5.44-6,5.42-5.16,0-11-5.58-10.9-10.32C693.39,636.23,695.74,634.79,699.37,634.9Z"/><path d="M768.34,766.8c-2.57,3.79-4.48,7-6.89,9.82-.53.6-4.09-.16-4.17-.63-.6-3.71-1.56-7.73-.65-11.19.59-2.25,4.13-3.73,6.34-5.56Z"/><path d="M742.6,638.88c-.68.61-2,2.75-3.65,3.06-3.6.68-8.43-5-8.1-9.67.12-1.69,2.11-4.27,3.67-4.63C738.15,626.8,742.52,632.43,742.6,638.88Z"/><path d="M792.88,694.64l-4.48,5.94c-1.59-1.5-4.25-2.81-4.54-4.53-.54-3.27.18-6.78.66-10.16,0-.29,2.92-.78,3.22-.33C789.54,688.23,791,691.16,792.88,694.64Z"/><path d="M789.41,734.88c-2,3.15-3.79,6.23-5.9,9.08-.27.36-3.1-.45-3.1-.74,0-3.61-.31-7.36.61-10.76.43-1.58,3.31-2.48,5.08-3.69Z"/><path d="M954.14,368.68c-5.8-.17-9.72-3.67-8.75-7.15a7.56,7.56,0,0,1,4.89-4.47c3.74-.75,8.19,3.86,7.31,7.45C957.13,366.39,954.88,367.84,954.14,368.68Z"/><path d="M952.65,521.11c5.26.27,9.48,4.14,8.71,7.52-.4,1.74-3,4-4.82,4.2-4.06.49-8.35-3.93-7.43-7.45C949.61,523.47,951.85,522,952.65,521.11Z"/><path d="M929.18,313.68c-1-1.55-3.45-3.56-3.62-5.75-.33-4.1,2.94-6.1,6.7-6.09,3.35,0,5.87,1.8,5.67,5.73C937.7,312.08,934.35,312.87,929.18,313.68Z"/><path d="M948,517.54c-5.74-.39-9-2.21-8.45-6.21.26-2,3.26-4.56,5.49-5.18,3.22-.9,7.76,3.48,6.9,6.49C951.35,514.82,948.93,516.48,948,517.54Z"/><path d="M933.27,397.39c-2.81-3.65-5.55-5.65-5.83-7.95-.43-3.63,2.48-5.86,6.18-6s6.76,2,6.07,5.77C939.23,391.72,936.29,393.73,933.27,397.39Z"/><path d="M920,328.29c-.71-.83-2.9-2.27-3.37-4.15-.87-3.45,3-7.41,6.76-7.57,3.43-.15,5.5,1.64,5.66,5.08C929.25,324.92,925.52,328.1,920,328.29Z"/><path d="M935,451.66c-3-3.45-6-5.32-6.34-7.6-.54-3.51,2.1-5.81,6-6s6.85,1.85,6.46,5.41C940.83,445.92,937.82,448.05,935,451.66Z"/><path d="M914.38,506.92c-.66-1-2.54-2.54-2.77-4.33-.49-3.71,4-8.25,7.55-7.46a7.34,7.34,0,0,1,4.67,4.61C924.56,503.17,919.84,507,914.38,506.92Z"/><path d="M936,506.25c-2.89-3.67-5.58-5.59-6-7.89-.62-3.75,2.21-5.86,6-5.94s6.82,1.85,6.22,5.62C941.86,500.47,939,502.51,936,506.25Z"/><path d="M942.82,478.64c5.71.19,9.39,3.66,8.3,7-.62,1.9-3.4,4-5.44,4.31-3.71.5-7.19-1.59-6.79-5.72C939.11,482,941.86,479.93,942.82,478.64Z"/><path d="M946.89,463.16c-5.46-.53-8.59-2-8.8-6.13-.19-3.64,2.34-5.64,5.86-5.56,3.9.09,6.82,2.42,6.57,6.31C950.39,459.88,947.85,461.83,946.89,463.16Z"/><path d="M921.13,382.52c-.76-1-3.28-2.94-3.28-4.83,0-4,2.86-6.95,7-6.55a7.73,7.73,0,0,1,5.35,4.45C931.22,378.91,927.09,382.4,921.13,382.52Z"/><path d="M922.15,410c-.95-1.2-3.45-2.92-3.62-4.83-.35-4.12,2.4-6.59,6.57-7,3.45-.34,5.77,1.2,5.77,4.8C930.87,407.39,927.75,409,922.15,410Z"/><path d="M939.28,315c5.77.48,8.75,2.54,8,6.49-.38,2-3.49,4.45-5.67,4.8-3.67.59-7.09-1.7-6.54-5.78C935.36,318.23,938.21,316.3,939.28,315Z"/><path d="M935.08,531.19c-1.11-1.27-4-3.09-4.46-5.41-.75-3.71,2.2-6,5.85-6.16s6.38,1.59,6.57,5.56C943.24,529.3,940.46,530.71,935.08,531.19Z"/><path d="M951.56,493.81c5.41-.13,9.92,3.67,9.25,7.26-.32,1.77-2.85,4.09-4.69,4.4-3.73.64-8.43-3.82-7.75-7.14C948.77,496.39,950.83,494.78,951.56,493.81Z"/><path d="M926.47,517.93c-3.47.21-5.89-1.26-5.57-4.87.36-4.12,3.21-6.82,7.28-6.22,2,.29,4.62,2.78,5.16,4.77C934.29,515.08,930.71,517.93,926.47,517.93Z"/><path d="M944.87,381.25c-5.56-.49-8.73-2-8.74-6.18,0-3.54,2.41-5.47,6.11-5.35,4.09.14,6.8,2.54,6.55,6.32C948.65,378.11,945.87,380,944.87,381.25Z"/><path d="M942.61,396.87c3.88.33,6.56,2.12,6.73,6.3.15,3.7-2.2,5.18-5.59,5s-6.53-1.2-6.78-5.46C936.74,398.83,939,397.21,942.61,396.87Z"/><path d="M941.14,424.19c5.81-.21,9.55,2.81,8.74,6.36a7.64,7.64,0,0,1-5,4.68c-4.33.87-8-2.09-7.24-5.62C938.13,427.31,940.34,425.37,941.14,424.19Z"/><path d="M922.44,436.79c-.8-1.09-3.25-2.9-3.29-4.77-.1-4.07,2.73-6.49,6.89-6.74,3.44-.2,5.76,1.58,5.57,5C931.38,434.62,928.29,436.35,922.44,436.79Z"/><path d="M923.21,463.85c-.79-1-3.28-2.73-3.4-4.6-.27-4.1,2.51-6.47,6.66-6.84,3.53-.3,5.7,1.59,5.69,4.92C932.15,461.71,929.12,463.46,923.21,463.85Z"/><path d="M952.8,313.84c-5.93-.4-9.13-2.3-8.67-6.61.2-1.79,3-4.23,5.06-4.69,3.53-.8,8.09,3.52,7.3,6.77C956,311.32,953.63,312.88,952.8,313.84Z"/><path d="M929.94,340.85c-1.1-1.67-3.63-3.8-3.75-6.06-.21-4.14,3.49-6.14,7-5.55,2.05.36,4.84,3.29,5.14,5.37C938.92,338.9,935.22,340,929.94,340.85Z"/><path d="M914.1,479.91c-.71-.85-2.74-2.25-3.13-4-.79-3.57,3.35-8.25,7.15-7.82a7,7,0,0,1,4.85,4.17C923.91,475.67,919.54,479.72,914.1,479.91Z"/><path d="M935.5,478.89c-2.86-3.47-5.64-5.37-6.06-7.69-.69-3.78,2.15-5.91,6-6s6.73,2,6,5.8C941,473.38,938.3,475.34,935.5,478.89Z"/><path d="M954.39,396.18c-5.51-.51-9.66-4.48-8.45-7.54a8.13,8.13,0,0,1,5.68-4.17c3.46-.37,7.65,4.66,6.6,7.64C957.55,394,955.25,395.32,954.39,396.18Z"/><path d="M936.26,410.36c1.14,1.57,3.82,3.64,4.06,6,.45,4.24-3,5.71-6.82,5.64-3.2-.05-5.56-1.41-5.49-5.15C928.1,412.48,930.9,411,936.26,410.36Z"/><path d="M955.65,423.32c-6-.08-9-2.94-9.07-6.88,0-3.58,2-4.72,5.16-4.65,4,.08,7.75,3.47,7.06,7.18C958.46,420.85,956.35,422.41,955.65,423.32Z"/><path d="M913.07,452.68c-.65-.88-2.61-2.4-2.89-4.18-.53-3.47,4.26-8.3,7.65-7.55,1.9.42,4.38,2.75,4.73,4.58C923.25,449,918.62,452.75,913.07,452.68Z"/><path d="M915.32,533.81c-.67-.76-2.84-2.11-3.16-3.82-.74-3.84,3.86-8.53,7.72-7.72a7.07,7.07,0,0,1,4.41,4.67C924.92,530.46,920.82,533.79,915.32,533.81Z"/><path d="M935.09,356.43c.86,1,3.64,2.92,4,5.18.65,4.2-2.81,6.38-6.48,5.81-2.23-.34-5.57-2.84-5.81-4.71C926.33,359.08,928.8,356.37,935.09,356.43Z"/><path d="M911.17,371.57c-.6-1-2.34-2.53-2.52-4.27-.41-3.78,3.77-8,7.44-7.33a6.85,6.85,0,0,1,4.46,4.43C921.17,367.84,916.58,371.56,911.17,371.57Z"/><path d="M911.93,398.44c-.59-.75-2.57-2.14-2.84-3.8-.6-3.78,3.35-7.6,7.3-7.75,3-.11,4.92,1,5,4.23C921.52,394.84,917.66,398.37,911.93,398.44Z"/><path d="M920.45,355.41c-.69-1-2.7-2.57-3.05-4.48-.65-3.61,3.28-7.74,6.93-7a7.77,7.77,0,0,1,5,4.7C930.25,352,926.14,355.41,920.45,355.41Z"/><path d="M912.6,425.58c-.63-.81-2.59-2.23-2.87-3.93-.6-3.66,3.65-8.25,7.31-7.71,1.82.27,4.35,2.52,4.73,4.27C922.57,421.88,918.43,425.44,912.6,425.58Z"/><path d="M950.17,439.1c5.46-.13,9.8,3.35,9.29,6.83-.27,1.79-2.61,4.18-4.42,4.61-3.63.87-8.28-3-7.82-6.28C947.51,442.15,949.46,440.26,950.17,439.1Z"/><path d="M953.1,341.68c-5.32-1.23-8.53-2.78-8.52-7.26,0-3.69,2.56-5.17,5.78-4.75,3.95.51,6.95,3,6.5,7.13C956.66,338.74,954.13,340.43,953.1,341.68Z"/><path d="M943.72,354.63c-5-1.22-8.09-2.4-8.09-6.83,0-3.77,2.44-5.48,6-5.39,3.94.1,6.87,2.25,6.43,6.25C947.78,350.78,945.23,352.65,943.72,354.63Z"/><path d="M957.14,478c-5.88,0-9.43-3.06-9.44-6.7,0-3.39,1.94-4.84,5.14-4.81,4,0,7.71,3.33,7.17,7.08C959.75,475.46,957.78,477.08,957.14,478Z"/><path d="M925.41,490.79c-3,.27-4.92-1.05-5-4.54-.08-3.69,3.18-7.25,6.94-6.51a8,8,0,0,1,5.22,4.63C933.57,487.87,930.05,490.73,925.41,490.79Z"/><path d="M1039.73,757.69c-5.28,6.23-10.48,10.67-19.49,9.5-13.25-1.73-26.66-2.15-40-3.15a12.43,12.43,0,0,1-2.06-.52c2.82-3.81,5.42-7.47,8.22-11a4.12,4.12,0,0,1,3-1.54c16.52,1.9,33,3.94,49.54,6C1039.06,757,1039.18,757.21,1039.73,757.69Z"/><path d="M1040.34,681.13c5.84-.12,9.11,2.32,11.59,7,13.13,24.64,9.77,56.7-8.15,76.69-3.31,3.7-6.84,5.6-12.58,3.51,14.46-10.4,21.31-24.69,22.9-41.51S1051.34,694.66,1040.34,681.13Z"/><path d="M1051.82,727.11l-54-7c.16-2.62.31-5,.48-7.86l53.5,8.63Z"/><path d="M1040.82,686.66l-32.66-6.85c-2.65-.56-5.27-1.54-7.95-1.7-6.87-.41-10.89-3.86-12.28-11,15.44,3.87,30.89,7.5,46.14,11.81,2.86.81,5,4.35,7.41,6.63Z"/><path d="M976.29,672.85c-8.16-1.74-15.88-2.43-22.72-5.25-3.69-1.52-5.87-6.71-8.42-10.71C956.06,660.56,969.83,658.05,976.29,672.85Z"/><path d="M985.83,710.3v8.09l-24-2.74c.21-2.94.39-5.53.63-9.09Z"/><path d="M1044.37,768.16c3.87-9.5,10.59-11.77,19.45-8.19C1061,767.74,1054.46,770.61,1044.37,768.16Z"/><path d="M1062.19,728.5v-5.37c13.65.61,13.88.72,13.29,6.92Z"/><path d="M1052.5,682.48l10.94,7.57c-7.35,1.06-7.35,1.06-11.79-6.25C1051.93,683.36,1052.21,682.92,1052.5,682.48Z"/><path d="M1143.51,725.91c0,5.15.25,10.31-.08,15.44-.27,4.31-3,7.1-7.34,7.22-8.44.22-16.89.06-25.56-.46C1125.07,745.87,1137.3,740.48,1143.51,725.91Z"/><path d="M907.79,247.2c0,17,.05,34,0,50.94,0,3.75-2.17,6.39-5.87,6.61a86.35,86.35,0,0,1-18.38-.86c3.2-.94,6.41-1.85,9.61-2.82,6.28-1.91,9.46-6,10.07-12.59Q905.07,267.73,907,247Z"/><path d="M591.39,535.81c-4.2,11.63-8.38,22.76-12.18,34-1.19,3.55-3.66,2.84-6,2.84q-50.53,0-101.08,0c-5.26,0-10.51.07-15.76,0-6.68-.07-8.62-2.71-4.88-8.29a51.05,51.05,0,0,1,12.79-13.53c11.69-8.09,25.42-11,39.27-13.16C532.82,533.13,562.2,533.15,591.39,535.81ZM584.92,540c-.72-.13-1.37-.3-2-.36a325.32,325.32,0,0,0-81.1,2.82c-13.7,2.27-26.83,6-38.25,14.21-2.55,1.84-4.6,4.37-6.38,6.1,8.73-3.73,17.61-7.55,26.51-11.31,3.61-1.52,6.6-.89,9.91,1.64,8.59,6.56,19.89,5.82,25.48-2.62,3.66-5.51,8.13-6.23,13.47-6.59,6.85-.47,13.71-1,20.58-1.17,6.44-.2,12.89-.05,19.34-.05v1l-36,14.43.27.88,38.11-8.64c-.34,6-.65,11.55-1,17.09h.79C578.05,558.37,581.43,549.32,584.92,540Zm-17.28,28.51c-35.08-9.11-69.28-3.08-103.5,0Z"/><path d="M585.42,571.54c4.71-10.92,9-21,13.48-30.89.41-.9,2.69-1.57,3.94-1.37,13.54,2.13,27.07,4.32,40.55,6.79,5.74,1.06,7.36,5.4,4.44,10.56-7.69,13.62-21,20.2-36.83,18.21C603,573.84,595,572.78,585.42,571.54ZM596,557.91l32.67-8.59c-7.34-1.24-15.78-2.73-24.26-4a3.68,3.68,0,0,0-3.09,1.25C599.28,550.43,597.56,554.49,596,557.91Z"/><path d="M1076.54,422.84q0,13.83,0,27.67c0,5-1.59,6.08-5.87,3.52-10.09-6-20.14-12.12-30-18.46a19.39,19.39,0,0,1-9.24-16.36q-.93-28.2-1.56-56.41c-.11-4.24,2.52-5.85,5.93-3.42,11.63,8.3,23.37,16.5,34.43,25.51,2.87,2.33,4.53,7.4,4.85,11.37.71,8.8.22,17.71.22,26.58Zm-39.64-51.61,23,14.76.75-1.13c-6.59-5-13.1-10.15-19.79-15-2.92-2.14-6.35-1.49-6.58,2.17-.39,6.24.49,12.57.83,18.86l1.83-.08Z"/><path d="M881.7,344.68c9.65,2.63,17.59.46,24.36-6.34.13,4.51-2.39,8-7,10.1C893.44,351,887,349.73,881.7,344.68Z"/><path d="M1084.1,556.36q0,23.08,0,46.17c0,6-1.52,6.94-7.25,4.55-2.34-1-4.69-1.9-7-2.91-6.61-2.88-10.26-7.9-10.48-15.14-.39-12.49-.65-25-.95-37.48-.3-13-.65-26.06-.86-39.09-.09-6.07.81-6.53,6.15-3.54,3.31,1.86,6.4,4.21,9.88,5.67,6.89,2.89,9.1,8.23,9,15.15-.06,8.87,0,17.75,0,26.62Zm-11.41-35.64.77-.89a57.72,57.72,0,0,0-6.17-4.08c-3.49-1.77-6.06,0-6.11,3.4-.1,7.51.56,15,.91,22.53l2.13,0V517.1Z"/><path d="M469.31,684.35c-3.62,0-7.24.06-10.85,0-4.54-.11-7-2.46-7.15-7.07-.08-4-.1-8,0-11.94.09-4.6,2.69-7.1,7.12-7.22,7.41-.2,14.84-.19,22.25,0,4.73.13,7.24,2.89,7.27,7.67C488.05,684.92,489.06,684.68,469.31,684.35Zm-10.74-7,18.25-12.59H458.57Z"/><path d="M112.38,679.86c0-9.74,0-9.74,9.63-9.72,1.62,0,3.25.09,4.87,0,3.86-.21,5.56,1.46,5.52,5.43-.2,16.91,1.92,14.61-12.83,14.71-7.17.05-7.17,0-7.19-7.17Zm7.8-6.35c3.48,3.09,6.52,5.78,9.47,8.38v-8.38Z"/></g><g id="Text"><path d="M1385.39,487.69l11,32.39-49.24,90h-162l255.9-485.88L1697,610.13h-162l-47.94-85.51,9.71-36.93-55.71-125Zm-62.84-38.22h239.71V551.82H1322.55Z"/><path d="M1910.15,487.69l11,32.39-49.23,90H1710l255.9-485.88,255.9,485.88h-162l-47.94-85.51,9.72-36.93-55.72-125Zm-62.84-38.22H2087V551.82h-239.7Z"/><path d="M2406.4,156.64V610.13H2263.87V156.64Zm-50.53,0H2455q66.71,0,108.51,20.08t61.55,55.07q19.75,35,19.76,80.33,0,44.7-19.76,80t-61.55,55.39Q2521.71,467.61,2455,467.6h-99.12V360.71H2442q18.13,0,29.8-4.86a37.5,37.5,0,0,0,17.82-14.58q6.15-9.7,6.15-22.67,0-13.61-6.15-23t-17.82-14.25q-11.65-4.86-29.8-4.86h-86.16Zm186.57,259.14L2672,610.13h-165.2L2396.68,415.78Z"/><path d="M2710.88,284.91a226.65,226.65,0,0,1,53.77-75.8Q2799,177.39,2845,160.53t99.12-16.85q54.42,0,100.41,16.85t80.34,48.58a219.2,219.2,0,0,1,53.12,75.8q18.78,44.07,18.79,98.47t-18.47,99.45a230.56,230.56,0,0,1-52.15,78.06q-33.69,33-80,50.86t-102,17.82q-55.72,0-102-17.82t-80-50.86a230.41,230.41,0,0,1-52.15-78.06q-18.47-45-18.46-99.45T2710.88,284.91ZM2854.7,441.69q12.3,25.26,35,39.2t54.42,13.92q31.72,0,54.42-13.92t35-39.2q12.3-25.26,12.31-58.31,0-33.67-11.66-58.63t-34-38.87q-22.35-13.92-56-13.92-31.76,0-54.42,13.92a92.68,92.68,0,0,0-35,38.87q-12.3,25-12.3,58.63Q2842.4,416.43,2854.7,441.69Z"/><path d="M3692.37,156.64V632.81l-294.77-228V610.13h-136V134L3556.32,362V156.64Z"/><path d="M1383.67,679.85v140h-42v-140Zm-11.6,0h62.6v37h-62.6Zm0,57h60.6v34h-60.6Z"/><path d="M1502.66,679.85v140h-44v-140Zm-15.59,0h30.59q20.61,0,33.5,6.2t19,17a53.26,53.26,0,0,1,0,49.5q-6.09,10.91-19,17.1t-33.5,6.2h-30.59v-33h26.59a24.1,24.1,0,0,0,9.2-1.5,11.53,11.53,0,0,0,5.5-4.5,14,14,0,0,0,0-14.1,11.75,11.75,0,0,0-5.5-4.4,24.1,24.1,0,0,0-9.2-1.5h-26.59Zm57.59,80,40,60h-51l-34-60Z"/><path d="M1640.66,679.85v140h-42v-140Zm-11.59,0h70.59v35h-70.59Zm0,51h66.59v34h-66.59Zm0,54h70.59v35h-70.59Z"/><path d="M1770.66,679.85v140h-45v-140Z"/><path d="M1870.66,739.85h74.4a94.08,94.08,0,0,1-2.7,33.6,74.09,74.09,0,0,1-13.9,27.4,65.36,65.36,0,0,1-24.2,18.4q-14.6,6.6-33.6,6.6a92.19,92.19,0,0,1-32.2-5.4,74.3,74.3,0,0,1-25.3-15.4,69.25,69.25,0,0,1-16.6-24,79.63,79.63,0,0,1-5.9-31.2,74.17,74.17,0,0,1,6.2-30.9,66.8,66.8,0,0,1,17.3-23.3,77.8,77.8,0,0,1,26-14.7,99.77,99.77,0,0,1,32.5-5.1q16,0,28.3,4.8a75.29,75.29,0,0,1,21.6,12.7,97.89,97.89,0,0,1,16.3,17.7l-41,18.4a41.26,41.26,0,0,0-9.4-11.6q-5.81-5-15.8-5a39.74,39.74,0,0,0-18,4.1,31.38,31.38,0,0,0-13.1,12.3q-4.9,8.21-4.9,20.6,0,12.2,4.5,21a31.44,31.44,0,0,0,12.6,13.4,37.59,37.59,0,0,0,18.9,4.6,44.61,44.61,0,0,0,10.8-1.2,28.35,28.35,0,0,0,8.3-3.4,25,25,0,0,0,6.1-5.4,34.57,34.57,0,0,0,4.4-7h-31.6Z"/><path d="M2010.26,679.85v140h-44v-140Zm-34.6,48h112v39h-112Zm128.6-48v140h-44v-140Z"/><path d="M2118.26,679.85h124v39h-40v101h-44v-101h-40Z"/><path d="M2361.25,679.85v140h-45v-140Z"/><path d="M2522.25,679.85v147l-91-70.4v63.4h-42v-147l91,70.4v-63.4Z"/><path d="M2595.55,768a30,30,0,0,0,13,10.9,43.6,43.6,0,0,0,17.9,3.6,50.82,50.82,0,0,0,17.2-2.6,52.81,52.81,0,0,0,12.7-6.5,87.55,87.55,0,0,0,9.9-8.1v45.2a93.57,93.57,0,0,1-17.9,9.5q-9.7,3.9-25.1,3.9a101,101,0,0,1-33.2-5.2,71.93,71.93,0,0,1-25.6-15,67.5,67.5,0,0,1-16.4-23.4,82.57,82.57,0,0,1,0-60.8,67.5,67.5,0,0,1,16.4-23.4,71.93,71.93,0,0,1,25.6-15,100.76,100.76,0,0,1,33.2-5.2q15.4,0,25.1,3.8a83.47,83.47,0,0,1,17.9,9.6v45.2a96.3,96.3,0,0,0-9.9-8.2,48.51,48.51,0,0,0-12.7-6.5,52.51,52.51,0,0,0-17.2-2.5,43.6,43.6,0,0,0-17.9,3.6,30,30,0,0,0-13,10.9q-4.9,7.31-4.9,18.1T2595.55,768Z"/></g></svg>