<svg id="Layer_1" data-name="Layer 1" xmlns="http://www.w3.org/2000/svg" viewBox="0 0 100 100"><path d="M49.24,95.48a50.36,50.36,0,0,1-11.82-1.41C11.6,87.79-4.65,62.41,1.19,37.51c2.75-11.74,9.51-21.4,19-27.19A41.33,41.33,0,0,1,52.11,5.89,36.41,36.41,0,0,1,78.38,50.08,30.77,30.77,0,0,1,41.06,72.42,26.23,26.23,0,0,1,22.15,40.63C25.2,28.4,35.57,21.05,47.37,22.76A16.08,16.08,0,0,1,61.44,37.35c.52,7.1-3.87,13.1-11.2,15.29a5.27,5.27,0,1,1-3-10.1c3.26-1,3.81-2.94,3.7-4.42a5.54,5.54,0,0,0-5.06-4.93C38,32,33.71,37.87,32.38,43.18a15.68,15.68,0,0,0,11.27,19,20.2,20.2,0,0,0,24.5-14.7A25.83,25.83,0,0,0,49.53,16.12a30.88,30.88,0,0,0-23.82,3.21C18.62,23.64,13.56,31,11.46,39.91,7,58.88,20,79,39.91,83.82c19.25,4.67,42.51-5.47,49.7-33.94a5.28,5.28,0,0,1,10.23,2.58C92.37,82,70.47,95.48,49.24,95.48Z"/></svg>