<?xml version="1.0" encoding="utf-8"?>
<!-- Generator: Adobe Illustrator 25.4.1, SVG Export Plug-In . SVG Version: 6.00 Build 0)  -->
<svg version="1.1" id="Layer_1" xmlns="http://www.w3.org/2000/svg" xmlns:xlink="http://www.w3.org/1999/xlink" x="0px" y="0px"
	 viewBox="0 0 100 100" style="enable-background:new 0 0 100 100;" xml:space="preserve">
<style type="text/css">
	.st0{fill:#FFFFFF;}
</style>
<path class="st0" d="M49.2,95.5c-4,0-7.9-0.5-11.8-1.4C11.6,87.8-4.7,62.4,1.2,37.5c2.8-11.7,9.5-21.4,19-27.2
	C29.8,4.6,41.3,3,52.1,5.9c19.4,5,31.2,24.7,26.3,44.2c-4.1,16.5-20.8,26.5-37.3,22.3c-14-3.6-22.4-17.8-18.9-31.8
	C25.2,28.4,35.6,21,47.4,22.8c7.6,0.9,13.4,7,14.1,14.6c0.5,7.1-3.9,13.1-11.2,15.3c-2.8,0.9-5.7-0.6-6.6-3.4
	c-0.9-2.8,0.6-5.7,3.4-6.6c0.1,0,0.2-0.1,0.3-0.1c3.3-1,3.8-2.9,3.7-4.4c-0.3-2.6-2.4-4.7-5.1-4.9c-7.9-1.2-12.2,4.7-13.5,10
	c-2.1,8.4,2.9,16.8,11.3,19c10.8,2.7,21.8-3.9,24.5-14.7c0,0,0,0,0,0c3.5-13.8-4.8-27.8-18.6-31.4c-8-2.2-16.6-1-23.8,3.2
	C18.6,23.6,13.6,31,11.5,39.9C7,58.9,20,79,39.9,83.8c19.2,4.7,42.5-5.5,49.7-33.9c0.8-2.8,3.8-4.4,6.6-3.6c2.6,0.8,4.2,3.4,3.7,6.1
	C92.4,82,70.5,95.5,49.2,95.5z"/>
</svg>
